<?xml version="1.0" encoding="utf-8"?>
<!-- Generator: Adobe Illustrator 24.1.2, SVG Export Plug-In . SVG Version: 6.00 Build 0)  -->
<svg version="1.1" id="Layer_1" xmlns="http://www.w3.org/2000/svg" xmlns:xlink="http://www.w3.org/1999/xlink" x="0px" y="0px"
	 viewBox="0 0 80 80" style="enable-background:new 0 0 80 80;" xml:space="preserve">
<style type="text/css">
	.st0{clip-path:url(#SVGID_2_);}
	.st1{fill:#F8BB89;}
	.st2{fill:none;}
	.st3{fill:#EED4B4;}
	.st4{fill:#3C271D;}
	.st5{fill:#F6A371;}
	.st6{fill:#DF8560;}
	.st7{opacity:0.64;}
	.st8{fill:#FBB315;}
	.st9{fill:#00709D;}
	.st10{fill:#E95042;}
	.st11{fill:#EDE9DF;}
</style>
<g>
	<defs>
		<rect id="SVGID_1_" y="0" width="80" height="80"/>
	</defs>
	<clipPath id="SVGID_2_">
		<use xlink:href="#SVGID_1_"  style="overflow:visible;"/>
	</clipPath>
	<g class="st0">
		<g>
			<path class="st1" d="M31.6,36.8c0,0,0.5,1.7-0.3,3.1l0.8,2.1h11.9h7c0,0-0.2-3.8,0.7-4.6l-8.7,0L31.6,36.8z"/>
		</g>
		<g>
			<path class="st1" d="M57.8,12c0,0-1.8-6.3-4.7-7.1s-4.5-0.7-6.3,0c-1.8,0.7-2.3,0.3-4,0.1c-1.7-0.2-4.8-1.5-8.6-0.2
				s-5.2,3.8-5.8,7.9s-0.1,10.3,0,12.7s0.2,7.1,0.2,7.1l3.6,2.8c0,0-2.4-1.7-0.6-2.6c1.8-0.9,3.4-1.2,4.6-2.6s3.6-2.2,4.6-2.2
				c1,0.1,1.2-0.2,1.6-0.4c0.5-0.2,1.7-0.5,2-0.2s1.6,0.4,2.7,1.1s2.6,1.2,3.8,2.7c1.2,1.4,1.1,1.2,1.5,3.3c0,0,3.5-6.9,4.2-12.9
				C57.3,15.3,57.8,12,57.8,12z"/>
		</g>
		<g>
			<path class="st2" d="M49.2,18.3"/>
		</g>
		<g>
			<g>
				<g>
					<path class="st3" d="M48.8,18.4c0,0-1.1-0.6-0.1-1s3.1-1.2,4.9-0.8c1.8,0.4,3.5,2.1,2.8,2.4S51.5,20.6,48.8,18.4z"/>
				</g>
			</g>
		</g>
		<g>
			<g>
				<g>
					<path class="st3" d="M38.3,18.3c0,0,1.2-0.5,0.2-1s-3-1.5-4.8-1.3c-1.8,0.2-3.7,1.8-3,2.2S35.4,20.3,38.3,18.3z"/>
				</g>
			</g>
			<g>
				<g>
					<path class="st4" d="M35.4,16.1c0,0-0.7,1.4,0.1,3.1c0,0,3.1-0.4,3.4-1.6C38.9,17.7,38.4,16.8,35.4,16.1z"/>
				</g>
			</g>
		</g>
		<g>
			<path class="st4" d="M56.5,18.7c-0.1-0.2-0.2-0.4-0.2-0.5c-0.1-0.2-0.2-0.3-0.3-0.4c-0.1-0.1-0.2-0.2-0.4-0.3
				c-0.3-0.2-0.5-0.3-0.6-0.4c-0.5-0.3-1.1-0.5-1.4-0.6c-0.1,0-0.7,0.1-1.2,0.6c-0.2,0.3-0.4,0.7-0.3,1.4c0,0,0,1.2,0.9,1.1
				C53.8,19.6,56.3,19.3,56.5,18.7z"/>
		</g>
		<g>
			<g>
				<path class="st5" d="M43.9,19.2c0,0,0.1,4.6,0,5.3s-1.3,1.2-2.2,1.1c-0.8-0.1-1.5-0.4-1.5-1.2s0.3-1.2,0.7-1.2
					c0.4,0.1,0.6,0.3,0.7,0.4c0.1,0.1,0.1,0.4,0.1,0.5c0,0.2-0.2,0.1-0.3-0.1c0-0.2-0.1-0.6-0.5-0.6c-0.4,0-0.5,0.7-0.3,1.1
					c0.3,0.5,0.7,0.5,1,0.5c0.3,0.1,1,0,1.6-0.3s0.4-4,0.4-4.1S43.5,19.3,43.9,19.2z"/>
			</g>
		</g>
		<g>
			<g>
				<path class="st6" d="M53.2,26c0,0.8-0.5,1.3-1.4,1.3s-1.7-0.7-1.7-1.5c0-0.8,0.6-1.5,1.4-1.5S53.2,25.2,53.2,26z"/>
			</g>
		</g>
		<g>
			<g>
				<path class="st6" d="M34,26.6c-0.6,0.4-1.3,0.2-1.6-0.5c-0.4-0.6-0.2-1.6,0.4-1.9c0.6-0.4,1.4-0.2,1.8,0.5
					C34.9,25.3,34.6,26.3,34,26.6z"/>
			</g>
		</g>
		<g class="st7">
			<path class="st1" d="M32.7,40.6c0,0,0,1.9-2.1,2.2c-2.1,0.2-3.8,0.1-6.2,0.3c-2.4,0.2-5.5,0.2-7.9,0.8s-5.1,2.4-6.8,4.2
				c-1.6,1.8-2.9,5.4-3,8.3c-0.1,2.9,0,4.3-0.3,7.3s-0.4,5.5,0,7.5c0.4,2,0.8,3.9,0.6,5.6C6.8,78.3,7.4,79,7.6,80
				c0.2,1,0.6,2.2,0.6,3.4c0,1.2,0.1,2.1,0,3.4c-0.1,1.3,0.4,1.8,0.4,3.1c0,1.3,0.2,3.3,0.3,4.7c0.1,1.4,0.1,3.2-0.1,4
				c-0.2,0.8-0.4,2.3-0.4,3c0,0.7-0.1,1.3-0.3,2.1c-0.1,0.9-0.3,1.9-0.1,3.1c0.2,1.1,0.4,3.5,0.9,3.1c0.6-0.4,0.8-0.9,0.8-1.8
				c0-0.9-0.3-2.8,0.1-3.4c0.4-0.6,0.4,0.6,0.4,1.5c0,1-0.1,2.1,0.4,3c0.6,0.9,0.7,1.5,1.2,0.8c0.5-0.7,0.3-1.8,0.1-2.6
				c-0.2-0.8-0.5-1.8-0.2-2.2s0.7,0,0.8,1.1c0.1,1.1,0.2,2.1,0.6,2.8s0.9,0.9,1.2,0.6s0.4-0.7,0.2-1.7c-0.2-0.9-0.3-1.8-0.4-2.5
				c0-0.8,0.4-0.9,0.5-0.3c0.1,0.6,0.3,2.3,0.5,2.8c0.2,0.5,0.6,1.3,0.9,1.2c0.3-0.1,0.8-0.3,0.8-1.1c0-0.8-0.3-1.3-0.4-2.3
				c0-1,0.1-1.5,0-2.1c-0.1-0.7-0.1-1.3,0.2-1.1c0.4,0.1,0.7,0.8,1.4,0.4c0.7-0.3,0.9-0.8,0.5-1.2c-0.4-0.4-0.7-0.8-1.1-0.9
				c-0.4-0.1-0.8-0.2-0.8-1s0.2-4.1,0.3-5.2c0.1-1.1,0.2-1.9,0-2.6c-0.2-0.7-0.2-1.7-0.2-2.5c0-0.8,0.1-4.3,0-5.5
				c-0.1-1.2-0.3-2.4-0.3-2.9c0-0.5,0-2.3-0.3-3c-0.3-0.7-0.9-1.8-1.1-2.3s-0.4-1.3-0.3-2.5s0.6-2.6,1.1-3.7
				c0.5-1.1,0.8-1.9,0.9-2.5c0.1-0.7,0.2-1.5,0.5-2.3c0.2-0.8,0.1-1.9,0.3-2.6c0.2-0.7,0.3-1.3,0.3-2.2c0.1-1,0.1-2.2,0.2-2.8
				s0.2-1.8,0.4-2.2c0.1-0.5,0.8-1.5,1.5-1.4c0.6,0.1,1.1,0.2,1.1,1.5c0,1.3-0.1,2.7-0.1,3.6c0,0.9-0.1,1.8-0.1,2.4s0,1.7-0.1,3
				c-0.2,1.3-0.2,2.8-0.2,3.8s-0.2,4.7-0.3,5.9C20,75,20,76.4,19.9,77s0,3.3,0,3.3s0.7-0.1,2.1,0.2s2.2-0.2,3.9,0.1
				c1.6,0.2,3.1,0.5,6.1,0.4c3-0.1,5.4-0.1,6.8-0.3c1.4-0.2,4.4-0.1,5.7,0.1c1.3,0.2,3.6,0.4,5.2,0.3c1.5-0.1,2.6,0.1,3.5,0
				c1-0.1,2.5-0.1,3.4,0.2s1.4,0.4,1.4,0.4s0.5-3.1,0.5-4.2s-0.2-1.8,0.2-3.3c0.4-1.4,0.7-4.2,0.7-5.3c0-1.1,0-2.9,0.1-4.8
				c0.2-2,0-3.8,0-4.7s0-2.4,0.3-3.3c0.3-0.9,0.4-1.7,1.4-1.7c1-0.1,1.1,1.1,1.2,2.2c0.2,1.1,0.2,3,0.3,4c0.1,1,0,1.9-0.1,2.6
				c-0.1,0.8-0.2,2.6-0.2,3.8s-0.1,2.5-0.2,3.5s-0.3,2-0.2,2.6c0.1,0.7,0,2.4,0,3.7s-0.1,2.4,0.2,3.2s0.4,1.5,0.9,2s0.3,1.6,0.2,2
				s-1.7,2.9-2,4.8c-0.3,2-0.4,1.8-0.4,3.9c0,2-0.1,5.4-0.2,6.9c-0.1,1.5-0.1,2.4-0.9,3.3c-0.8,0.8-0.3,0.7-1.1,0.8
				c-0.8,0.1-2.1,0-2,1c0.1,1,1.3,1.4,2.1,1.4c0.7,0,0.5,0.8,0.3,1.5c-0.2,0.7-0.4,2.3-0.6,2.6s-0.1,1.3,0,1.8
				c0.1,0.4,0.6,1,1.1,0.4s0.6-2.6,0.9-3.2s0.6-1.3,0.6-0.7c0,0.7-0.2,1-0.3,1.9c0,0.8-0.3,1.8,0.2,2.2s1.1,0.6,1.4-0.2
				c0.3-0.8,0.4-1.8,0.5-2.4c0.1-0.7,0.2-1.2,0.5-1.2c0.3,0,0,1.3-0.1,1.8c-0.1,0.4-0.2,1.3,0.1,1.8s0.7,0.7,1.2,0.1
				s0.3-1.3,0.4-2.1s0.3-1.6,0.5-1.8c0.2-0.1,0.3,0.2,0.1,1s-0.1,1.7,0.1,2.1c0.2,0.4,0.6,0.9,1.4,0.3c0.8-0.5,0.9-4.3,1-5.4
				s1.2-6.1,1.2-7.4c0-1.3,0.5-2.8,0.4-4c0-1.2,0.3-3.1,0.7-4.2c0.3-1.1,1-3.6,1-5s0.2-3.4,0-4.2c-0.2-0.8-0.2-1.6-0.1-2.4
				c0.1-0.8,0.3-3.2,0.4-4.1c0.1-0.9,0-1.7,0.2-2.4c0.2-0.7,0.2-2.1,0.3-2.7c0-0.6,0.1-1.5,0.2-2.3s0.1-1.9,0.3-2.9
				c0.3-0.9,0.4-1.7,0.5-2.4c0.1-0.8,0.2-1,0.2-1.5c0-0.5,0.3-1.8,0.5-2.8c0.2-1,0.3-5.1-0.8-7.3c-1.1-2.2-2.4-3.7-4.4-4.4
				c-2-0.7-4.3-0.9-7.8-1.2s-4.9-0.2-6.4-0.5s-2.8-1-3.3-1.9C50.7,42,32.7,40.6,32.7,40.6z"/>
		</g>
		<g>
			<path class="st8" d="M31.6,42.5c0,0-0.2,0.3-1.6,0.4s-4.2,0.1-5.4,0.2s-3.5,0.2-5.1,0.3c-1.6,0.2-3,0.2-4.9,1.2s-2.7,1.1-5,3.6
				c-2.3,2.5-2.8,7-2.8,7S6.7,65.5,6.2,68.2s0.5,4.4,0.5,4.4l8.4-0.7c0,0,1.6-3.9,1.7-4.7c0.1-0.8,1-5.8,1.1-6.5
				c0.1-0.7,0.2-4.8,0.7-5.9c0.5-1.1,0.9-1,1.4-1.2c0.5-0.2,1.1,0,1.1,1.1c0,1.1-0.2,5.8-0.2,5.8s-0.4,2.7-0.4,4
				C20.3,66,20.2,71,20.2,71l-0.3,9.3c0,0,2,0.6,3.5,0.3c1.6-0.2,1.6,0,4.1,0.2c2.5,0.2,4.6,0.3,7.8,0.1c3.2-0.2,2.7-0.3,4.7-0.3
				s3.8,0.2,5.6,0.3c1.8,0.1,2.4,0.4,4.5,0.3c2-0.1,4.8-0.6,5.9-0.1c1.1,0.5,1.9,0.5,1.9,0.5s0.1-1.5,0.4-2.6
				c0.3-1.1-0.1-2.4,0.1-3.4s0.5-2.7,0.7-4c0.2-1.3,0.2-3.3,0.3-5.3s0.2-3.5,0.2-5.3c-0.1-1.8-0.1-3.9,0.2-4.9
				c0.4-1.1,0.2-2.1,1.8-1.7s1.2,8.2,0.9,9.6c-0.3,1.4-0.1,5.1-0.4,7.1s9.9,0.8,9.9,0.8s0-4.1,0.5-6.4c0.5-2.3,2-6.5,1.3-11.2
				c-0.7-4.7-1.4-4.6-3.2-6.6c-1.8-2-9.7-2.8-15.3-2.7c0,0-3.3-0.7-3.9-1.8S31.6,42.5,31.6,42.5z"/>
			<path class="st9" d="M57.9,81.8c-0.1,0-0.8,0-1.9-0.5c-0.8-0.4-2.5-0.2-4.1,0c-0.6,0.1-1.2,0.1-1.7,0.2c-1.4,0.1-2.1,0-3-0.1
				c-0.4-0.1-0.9-0.1-1.5-0.2c-0.5,0-0.9-0.1-1.4-0.1c-1.3-0.1-2.7-0.2-4.2-0.2c-1.1,0-1.4,0-2,0.1c-0.5,0.1-1.2,0.1-2.7,0.2
				c-3.3,0.2-5.5,0.1-7.8-0.1c-0.9-0.1-1.5-0.1-2-0.2c-0.8-0.1-1.1-0.1-2.1,0c-1.6,0.3-3.5-0.3-3.6-0.3l-0.1,0l0.3-9.4
				c0-0.1,0.2-5.1,0.2-6.4c0.1-1.4,0.4-4,0.4-4c0,0,0.2-4.7,0.2-5.8c0-0.5-0.1-0.9-0.4-1c-0.2-0.1-0.4-0.1-0.6,0
				c-0.1,0.1-0.2,0.1-0.3,0.1c-0.4,0.1-0.6,0.2-1,1C18.2,55.8,18,58.7,18,60c0,0.4,0,0.6,0,0.8c0,0.5-0.5,3.2-0.8,5.1
				c-0.1,0.7-0.2,1.2-0.2,1.4c-0.1,0.8-1.6,4.5-1.7,4.7l0,0l0,0l-8.4,0.7l0,0c0,0-1-1.8-0.5-4.5c0.5-2.7,0.7-12.8,0.7-12.9
				c0-0.1,0.5-4.6,2.8-7.1c1.9-2.1,2.8-2.5,4-3.1c0.3-0.2,0.6-0.3,1-0.5c1.6-0.9,2.9-1,4.2-1.1c0.2,0,0.5,0,0.7-0.1
				c1-0.1,2.2-0.2,3.4-0.2c0.7,0,1.3-0.1,1.7-0.1c0.7-0.1,2-0.1,3.2-0.2c0.8,0,1.6-0.1,2.1-0.1c1.3-0.1,1.6-0.3,1.6-0.3l0,0l0,0
				c2,0,19.1-0.3,19.7,0.8c0.6,1,3.8,1.7,3.8,1.7c4.9-0.1,13.4,0.6,15.4,2.7c0.3,0.3,0.6,0.6,0.9,0.9c1.2,1.2,1.8,1.8,2.4,5.7
				c0.6,4-0.4,7.6-1,10c-0.1,0.4-0.2,0.9-0.3,1.2C72,67.7,72,71.9,72,71.9l0,0.1l-0.1,0c-0.3,0-8.5,1-9.8-0.4
				c-0.2-0.2-0.2-0.3-0.2-0.5c0.1-1,0.2-2.4,0.2-3.8c0-1.3,0.1-2.6,0.2-3.3c0.3-1.5,0.6-9.2-0.8-9.5c-1.2-0.3-1.3,0.2-1.5,1
				c-0.1,0.2-0.1,0.4-0.2,0.6c-0.4,1-0.3,3.1-0.2,4.9c0,1.4,0,2.7-0.1,4.1c0,0.4,0,0.8-0.1,1.2c0,0.7-0.1,1.5-0.1,2.2
				c0,1.2-0.1,2.4-0.2,3.2c-0.1,0.7-0.2,1.5-0.4,2.2c-0.1,0.7-0.3,1.3-0.3,1.8c0,0.4,0,0.9,0,1.4c0,0.7,0.1,1.4-0.1,2.1
				C58.1,80.2,58,81.7,57.9,81.8L57.9,81.8L57.9,81.8C57.9,81.8,57.9,81.8,57.9,81.8z M54.4,80.9c0.7,0,1.2,0.1,1.6,0.2
				c0.9,0.4,1.6,0.5,1.8,0.5c0-0.3,0.1-1.6,0.4-2.5c0.2-0.6,0.1-1.3,0.1-2c0-0.5-0.1-1,0-1.4c0.1-0.5,0.2-1.1,0.3-1.8
				c0.1-0.8,0.3-1.5,0.4-2.2c0.1-0.8,0.1-2,0.2-3.2c0-0.7,0.1-1.4,0.1-2.2c0-0.4,0-0.8,0.1-1.2c0.1-1.4,0.2-2.7,0.1-4.1
				c-0.1-1.8-0.1-3.9,0.3-5c0.1-0.2,0.1-0.4,0.2-0.6c0.2-0.8,0.4-1.5,1.7-1.2c1.6,0.4,1.2,8.3,1,9.7c-0.1,0.7-0.2,2-0.2,3.3
				c0,1.4-0.1,2.8-0.2,3.8c0,0.2,0,0.3,0.1,0.4c1.2,1.2,8.8,0.4,9.6,0.3c0-0.6,0-4.3,0.5-6.4c0.1-0.4,0.2-0.8,0.3-1.2
				c0.6-2.4,1.6-6,1-10c-0.6-3.9-1.1-4.5-2.3-5.6c-0.3-0.3-0.5-0.5-0.9-0.9c-1.7-1.9-9.1-2.8-15.3-2.7c-0.2,0-3.3-0.7-4-1.8
				c-0.4-0.7-11.9-0.8-19.6-0.7c-0.1,0.1-0.5,0.3-1.7,0.4c-0.6,0-1.3,0.1-2.1,0.1c-1.3,0-2.5,0.1-3.2,0.2c-0.4,0-1,0.1-1.7,0.1
				c-1.1,0.1-2.4,0.1-3.4,0.2c-0.3,0-0.5,0.1-0.7,0.1c-1.3,0.1-2.6,0.3-4.1,1.1c-0.4,0.2-0.7,0.4-1,0.5c-1.3,0.6-2.1,1.1-4,3.1
				c-2.3,2.5-2.7,7-2.7,7c0,0.1-0.2,10.3-0.7,12.9c-0.4,2.4,0.4,4,0.5,4.3l8.2-0.7c0.2-0.4,1.5-3.9,1.7-4.6c0-0.2,0.1-0.7,0.2-1.4
				c0.3-1.8,0.8-4.6,0.8-5c0-0.1,0-0.4,0-0.8c0.1-1.5,0.2-4.3,0.7-5.2c0.4-0.9,0.8-1,1.1-1.1c0.1,0,0.2-0.1,0.3-0.1
				c0.3-0.1,0.6-0.1,0.8,0c0.2,0.1,0.4,0.4,0.4,1.2c0,1.1-0.2,5.8-0.2,5.8c0,0-0.4,2.7-0.4,4c-0.1,1.4-0.2,6.4-0.2,6.4L20,80.3
				c0.3,0.1,2.1,0.5,3.4,0.3c1-0.2,1.4-0.1,2.2,0c0.5,0.1,1,0.1,2,0.2c2.3,0.2,4.5,0.3,7.8,0.1c1.5-0.1,2.2-0.2,2.7-0.2
				c0.6-0.1,1-0.1,2-0.1c1.5,0,2.9,0.1,4.2,0.2c0.5,0,0.9,0.1,1.4,0.1c0.6,0,1.1,0.1,1.5,0.2c0.8,0.1,1.6,0.2,2.9,0.1
				c0.5,0,1.1-0.1,1.7-0.2C52.7,81,53.6,80.9,54.4,80.9z"/>
		</g>
		<g>
			<path class="st8" d="M31.3,38.6c0,0-1.8,0.4-1.3,2.2c0.6,1.8-0.8,2.9,0.1,3.4c1,0.5,2.5,1.5,10.4,1.2s9.6,0.2,11.6-0.8
				c2-0.9,0.7-1.5,0.6-2.5c-0.1-0.9,1.1-2.5-0.3-2.6C51.1,39.4,31.3,38.6,31.3,38.6z"/>
			<path class="st9" d="M37.8,45.4c-5.4,0-6.8-0.7-7.7-1.2l-0.1,0c-0.5-0.2-0.4-0.7-0.2-1.2c0.2-0.6,0.4-1.3,0.1-2.2
				c-0.2-0.6-0.1-1,0.1-1.4c0.4-0.7,1.2-0.8,1.3-0.8l0,0l0,0c0.2,0,19.8,0.9,21.2,0.9c0.3,0,0.5,0.1,0.6,0.3
				c0.2,0.3,0.1,0.8-0.1,1.3c-0.1,0.4-0.2,0.8-0.2,1.1c0,0.2,0.1,0.5,0.3,0.7c0.2,0.3,0.3,0.6,0.2,0.9c-0.1,0.3-0.5,0.6-1.1,0.9
				c-1.3,0.6-2.5,0.6-5.5,0.6c-1.5,0-3.5,0-6.2,0.1C39.5,45.4,38.6,45.4,37.8,45.4z M31.3,38.7c-0.1,0-0.8,0.2-1.1,0.8
				c-0.2,0.4-0.2,0.8-0.1,1.3c0.3,0.9,0.1,1.7-0.1,2.3c-0.2,0.6-0.2,0.9,0.1,1l0.1,0c0.9,0.5,2.7,1.4,10.3,1.1
				c2.7-0.1,4.7-0.1,6.2-0.1c2.9,0,4.1,0,5.4-0.6c0.6-0.3,0.9-0.6,1-0.8c0.1-0.3,0-0.5-0.2-0.8c-0.1-0.2-0.2-0.5-0.3-0.7
				c0-0.3,0.1-0.8,0.2-1.2c0.1-0.5,0.3-0.9,0.1-1.2c-0.1-0.1-0.2-0.2-0.5-0.2C51.1,39.5,31.8,38.7,31.3,38.7z"/>
		</g>
		<g>
			<path class="st10" d="M28.9,29.6c0,0-1.5,3.6,1.2,6c2.7,2.4,4.1,2.8,10.4,2.8s12.9,2,14.1-6.9c0,0,0.2-2-4.4-3.3
				c-4.6-1.4-3.9-2-8.3-1.9S31.5,27.7,28.9,29.6z"/>
		</g>
		<g>
			<path class="st11" d="M37.5,14.3c0,0.1-1.6-0.2-3.8,0.3c-2.4,0.5-3.8,1.5-3.8,1.4c-0.1-0.1,1.4-1.5,3.5-2
				C35.6,13.5,37.5,14.2,37.5,14.3z"/>
		</g>
		<g>
			<path class="st11" d="M56.2,16c-0.1,0.1-1.4-0.7-3.6-1.1c-2.4-0.4-4.1,0-4.1-0.1c0-0.1,1.9-0.9,4-0.5
				C54.7,14.6,56.3,15.9,56.2,16z"/>
		</g>
		<g>
			<path class="st11" d="M40.1,29.5c0.2,0.4,0.5,0.6,0.9,0.9c0.4,0.2,0.7,0.4,1.3,0.4c1.4,0.1,2,0.1,2.6-0.2c0.6-0.3,1.1-1,1.4-0.8
				c0.3,0.2-0.8,1.1-1.5,1.3c-0.7,0.2-2.7,0.2-3.6-0.2c-0.9-0.4-1.8-1-1.7-1.6C39.6,29,39.9,29.3,40.1,29.5z"/>
		</g>
		<g>
			<path class="st10" d="M56.6,21.5c0,0,2.6-4.1,2.4-9.1s-2.7-6.6-4.1-7.6s-3.7-1.1-5.7-2.1c-2.1-1-4.3-3-10.3-2.7
				S27.4,2.8,26.4,5.2s0.2,4.1-0.8,5.2c-0.9,1.2-0.4,3.8,0.6,6.8c1.1,3,2,5.6,2,5.6s0.1-6.8,0.3-8.1s0.1-3.1,2.1-2.8
				c2,0.3,4.8,0.5,8.1-1c3.3-1.5,6.4-3.3,8.8-3.8s2-0.7,2.4,0.5s2.9,3.1,4.8,4.5C56.6,13.5,56.9,16.2,56.6,21.5z"/>
		</g>
	</g>
</g>
</svg>
