<svg id="Layer_1" data-name="Layer 1" xmlns="http://www.w3.org/2000/svg" xmlns:xlink="http://www.w3.org/1999/xlink" viewBox="0 0 80 80"><defs><style>.cls-1{fill:none;}.cls-2{clip-path:url(#clip-path);}.cls-3{fill:#f9b889;}.cls-4{fill:#251d19;}.cls-5{fill:#efd5b5;}.cls-6{fill:#f7a471;}.cls-7{fill:#e55a42;}.cls-8{fill:#dc6947;}.cls-9{fill:#3c271d;}.cls-10{fill:#fcb415;}.cls-11{fill:#047a87;}.cls-12{fill:#fbb416;}</style><clipPath id="clip-path"><rect class="cls-1" width="79.99" height="79.99"/></clipPath></defs><g class="cls-2"><path class="cls-3" d="M23.16,8.45a40.15,40.15,0,0,1,.1,4.92,11.46,11.46,0,0,0,0,3.21,34.74,34.74,0,0,0,.51,4.59c.37,1.11,1.21,4.41,1.26,4.77s1.19,3,3.08,3.41a2.51,2.51,0,0,1,2.25,2.53c0,.87.11,3.27-1.58,3.85a16,16,0,0,1-5,.42c-.69,0-2.11.07-2.53,0s-2.67.31-3.54.39a18.18,18.18,0,0,0-4,.39,21.16,21.16,0,0,0-3.43,1,16,16,0,0,0-3.8,2A10.79,10.79,0,0,0,4,44.2a38,38,0,0,0-1.34,7.49c-.35,3.72-.45,4.62-.3,5.33a27.39,27.39,0,0,1-.07,3.17c.05.61.26,2.19.29,2.51s-.06,2.11,0,2.69,0,2.5.05,3.8,0,4.56-.05,5.59.15,3.3.1,4.43-.08,4.7,0,5.8-.48,4.2-.13,5.62a20.76,20.76,0,0,1,.16,5.31c-.14.81-.93,3.69-1,5s-.48,3.93,0,5.17,1.08,1.61,1.37.22.31-3.67.6-3.17-.55,3.77.48,3.93,1-3,1.06-3.54.5-1.13.63-.31a13.72,13.72,0,0,1-.11,2.56c0,.82.37,2.06,1.08,1.61s.48-1.93.51-2.59.29-1.9.66-1.56.07,1.83,0,2.25,0,2.08.68,2.11,1-.71,1-2.4-.21-3.56.56-3.72,2.66.39,2.85-.45-.48-1.51-1.53-1.48-1.74-.1-1.77-1.74.47-2.08.55-3.64.06-2.4.24-3.8A54.14,54.14,0,0,0,10.71,84c-.06-1.77-.24-4-.24-5.23a23.44,23.44,0,0,1,.29-3.67A29.9,29.9,0,0,0,11,70.5c-.05-1.31,0-4.77.08-5.3a28.89,28.89,0,0,1,.26-3.35,21.14,21.14,0,0,0,.42-6.07,16.25,16.25,0,0,1,.35-5.3c.23-.84.68-2.06,1.11-2.24s.68.1,1,1.24a23.42,23.42,0,0,1,.47,5.88c-.16,1.48-.31,5.78-.26,7.15s.1,3.75.29,5.17,0,4.67.16,5.86.55,5.91.55,5.91S24,80,28.26,79.8s13.14,0,15.56.08,6.56.16,8.9.16,6.29.12,6.73-.47.51-10,.27-11.68-1.26-5.93-.87-7.56A20.1,20.1,0,0,0,59,55.62,23.72,23.72,0,0,1,59.17,51c.32-.79.55-1.06,1.58-.91s1.31,4.75,1.27,6.14a64.57,64.57,0,0,0,.36,6.92c.19,1.23-.16,4.87.31,7.48s0,3.48.48,6.14a45.82,45.82,0,0,1,.35,7.36,44.84,44.84,0,0,0,.28,5.3c.2,1.38.51,5.1.67,5.82s.38,2.59.1,2.89a2.57,2.57,0,0,1-1.3.73c-.89.31-1.55.59-1.67,1.28s-.21,1.33.76,1,1.32-.61,1.34,0a27.6,27.6,0,0,1-.1,3.8c-.16.85,0,2,.44,2.24s1,.24,1.12-.5a10.05,10.05,0,0,0,0-2.35c-.07-.28-.11-1.07.24-1s.38.71.38,1.13-.1,1.62.33,2.09,1.17.48,1.37,0,0-2.77.16-3.14.61-.24.53.55-.34,2.1,0,2.65,1.14.8,1.26.26,0-2.73.12-3.2.37-.34.39.08a9,9,0,0,1,0,1.8.94.94,0,0,0,.56,1.12c.45.16,1-.29,1.16-.89a23.2,23.2,0,0,0,0-4.57c-.09-.91-.43-3.52-.47-5.06s-.14-6.57-.14-7.42-.32-4.59-.32-5.48.2-3,.24-4.16,0-5.12.08-6-.2-4.87-.26-5.78a20,20,0,0,1,0-3,24.14,24.14,0,0,0,0-3.9c-.12-.61-.18-3-.2-3.66s0-2.55-.16-3.16a19.65,19.65,0,0,1-.1-2.28,29.51,29.51,0,0,0-.67-4c-.32-1-.95-2.25-1.07-2.87a7.76,7.76,0,0,0-1.33-2.33,18.85,18.85,0,0,0-4.39-3.33,29.42,29.42,0,0,0-5.52-1.06c-1.21-.1-4.19.11-5.5.08a6.85,6.85,0,0,1-3.38-.66c-.84-.53-1.71-1.09-1.75-1.86a12.06,12.06,0,0,1-.33-4.35,38.7,38.7,0,0,1,.91-4.94s2.59-14.59-3.9-18.39S24.82,4.81,23.16,8.45Z"/><path class="cls-4" d="M23.16,8.45S33,7,36.53,9s5.78,3.64,6.34,6.8S44.21,23.25,46,25s2.3,1.83,4.12,1.51,6,0,7.83,1.19S66.69,33.54,72,33.46s5.94-.71,7.2-3.48-2.29-6.49-6.33-5c0,0,1.35-1.82.64-3.08S71,18.19,68.27,19.3c0,0,1.74-5.39-5.93-5.07a10.74,10.74,0,0,1-2.54-2.85C58.93,9.8,55.16,3,51.31,2a43.31,43.31,0,0,0-17-1.74C26.56,1,20.55,4.18,23.16,8.45Z"/><path class="cls-5" d="M34.42,15.47s-1-.42-.13-.84a7.34,7.34,0,0,1,4-1c1.5.21,3.06,1.53,2.43,1.85S36.8,17.13,34.42,15.47Z"/><path class="cls-5" d="M27.83,15.37s.74-.22,0-.69S25.22,13,24.21,13.47s-1,.95-.92,2.24S27,15.84,27.83,15.37Z"/><path class="cls-6" d="M29.13,15.3s-.14,4.55,0,5.32,1.32,1.19,2.15,1.07,1.51-.42,1.53-1.19-.25-1.22-.69-1.14a.84.84,0,0,0-.67.42,1.21,1.21,0,0,0-.09.54c0,.16.24.11.29-.07s.08-.62.46-.63.54.68.26,1.14a1.22,1.22,0,0,1-1,.53A2.39,2.39,0,0,1,29.82,21c-.52-.34-.43-3.94-.43-4.09S29.49,15.49,29.13,15.3Z"/><path class="cls-7" d="M26.43,19.64a1,1,0,0,1-1.11,1.1A1.35,1.35,0,0,1,24,19.52a1.16,1.16,0,0,1,1.15-1.23A1.43,1.43,0,0,1,26.43,19.64Z"/><path class="cls-7" d="M40,19.4a1,1,0,0,1-1.11,1.11,1.36,1.36,0,0,1-1.37-1.23,1.15,1.15,0,0,1,1.15-1.22A1.42,1.42,0,0,1,40,19.4Z"/><path class="cls-8" d="M29.17,24.74s-.13-.59,0-.67.19.06.49.88,1.33.87,2,.63a1.6,1.6,0,0,0,1-1.25c.1-.49.38-.12.32.12s-.44,1.42-1.28,1.58S29.69,26.36,29.17,24.74Z"/><path class="cls-9" d="M36.87,13.68a3.14,3.14,0,0,1-.12,2.59s-2.54-.39-2.79-1.33C34,14.94,34.34,14.19,36.87,13.68Z"/><path class="cls-9" d="M24.56,13.38a3,3,0,0,1,.63,2.84s-1.56.34-1.81-.24a2.31,2.31,0,0,1,.17-2.07C23.93,13.61,24.2,13.38,24.56,13.38Z"/><path class="cls-10" d="M18.8,36.43a20.46,20.46,0,0,1-2,.2,15,15,0,0,0-3.07.34c-.72.21-2.19.52-2.81.76A27,27,0,0,0,7.63,39.2c-.76.47-.87.46-1.26.91a9.65,9.65,0,0,0-2,3.14,29.08,29.08,0,0,0-1.54,7.5c-.45,4.12-.56,5.91-.4,6.39s-.14,2.08-.07,2.9,9.27,0,9.27,0a32.18,32.18,0,0,0,0-4.8c-.21-2.06.26-5.93,1.56-7s1.6,5.19,1.47,7.12-.68,5.37-.29,8.45.48,9.34.71,11.32.32,4.32.32,4.32,8.35.55,8.94.47,8.47-.32,9.38-.28S43.89,80,45.6,80s11.23.16,12.46,0,1.35.08,1.54-1.19.2-6.61.2-8.23a32.36,32.36,0,0,0-.67-6.09A11.76,11.76,0,0,1,59,59.1c.4-1.38-.2-3.87,0-5.66s-.16-3.2,1.19-3.36,1.58,1.31,1.82,4.08.12,5.7.28,6.8,8.54,0,8.54,0-.31-5.85-.31-6.17-.21-1.77-.21-2.4a30.9,30.9,0,0,0-.72-5.07,15.22,15.22,0,0,0-2.45-5.19,12,12,0,0,0-4.83-3.35,24.45,24.45,0,0,0-6.83-1,12.61,12.61,0,0,1,.32,3.72c-.16,1.94-1,6.57-2.54,7.44s-5.83,5.07-11,4.32-14.48-3.84-17.29-7S18.8,36.43,18.8,36.43Z"/><path class="cls-11" d="M53.89,80.13c-2,0-4.4,0-6.16,0l-2.13,0c-1.7,0-11-.32-11.88-.36s-8.75.2-9.37.28-8.61-.45-9-.47h-.07v-.06s-.08-2.36-.31-4.31c-.11-.86-.18-2.48-.26-4.36-.11-2.44-.23-5.21-.46-7a31.93,31.93,0,0,1,.15-6.92c.06-.59.11-1.1.14-1.54.13-1.85-.14-6.7-1-7.15a.31.31,0,0,0-.35.08c-1.24,1-1.75,4.86-1.53,6.94a32.67,32.67,0,0,1,0,4.82v.05h-.06c-.34,0-8.46.74-9.26.08a.23.23,0,0,1-.08-.14,9.31,9.31,0,0,1,.06-1.44,5,5,0,0,0,0-1.45c-.16-.49-.05-2.35.4-6.41a29.6,29.6,0,0,1,1.54-7.53,9.57,9.57,0,0,1,2-3.08l.06-.08a2.61,2.61,0,0,1,.81-.64l.47-.28a28.46,28.46,0,0,1,3.26-1.47c.39-.15,1.13-.34,1.78-.5l1-.26a14.93,14.93,0,0,1,3.09-.35c.83,0,2-.2,2-.2h.05l0,0c0,.06,3.35,6.67,6.12,9.8s12.07,6.23,17.25,7c4.19.61,7.87-2.09,9.85-3.54a13.18,13.18,0,0,1,1.11-.77c1.4-.81,2.32-5.21,2.5-7.38a12.31,12.31,0,0,0-.32-3.7l0-.09h.09a23.74,23.74,0,0,1,6.85,1,12.07,12.07,0,0,1,4.86,3.37,14.66,14.66,0,0,1,2.4,5l.07.21a31.86,31.86,0,0,1,.72,5.09c0,.37.07,1,.13,1.55s.08.71.08.85c0,.31.31,6.11.31,6.17V61h-.07c-.86.12-8.46,1.09-8.62-.06a23.43,23.43,0,0,1-.11-2.5c0-1.25,0-2.81-.17-4.31-.16-1.92-.33-3.32-.94-3.81a1,1,0,0,0-.8-.2c-1,.12-1,1-1.07,2.21,0,.35,0,.71-.06,1.09A16.15,16.15,0,0,0,59.12,56a9.83,9.83,0,0,1,0,3.1,11.44,11.44,0,0,0,.12,5.31,33.05,33.05,0,0,1,.67,6.11c0,1.72,0,7-.2,8.24-.16,1-.29,1.1-1,1.17l-.58.08C57.6,80.1,55.9,80.13,53.89,80.13Zm-20.47-.56h.31c.89,0,10.17.36,11.87.36l2.13,0c3.28,0,9.37.09,10.32-.06l.59-.08c.67-.07.74-.07.9-1s.19-3.6.19-8.22a32.75,32.75,0,0,0-.67-6.08,11.74,11.74,0,0,1-.12-5.38,9.8,9.8,0,0,0,0-3,16.4,16.4,0,0,1-.08-2.59c0-.38.05-.74.06-1.08,0-1.24.07-2.22,1.19-2.35a1.16,1.16,0,0,1,.91.23c.65.53.82,1.95,1,3.91.13,1.5.15,3.06.17,4.32A23.57,23.57,0,0,0,62.33,61c.1.76,5.18.37,8.4-.05,0-.67-.31-5.81-.31-6.11,0-.13,0-.45-.08-.83s-.13-1.2-.13-1.57a31,31,0,0,0-.71-5l-.07-.21a14.58,14.58,0,0,0-2.37-5,12.23,12.23,0,0,0-4.8-3.33,24,24,0,0,0-6.72-1,12.94,12.94,0,0,1,.3,3.66c-.17,2-1,6.6-2.57,7.49-.27.16-.64.43-1.1.77-2,1.46-5.7,4.17-10,3.56-5.2-.76-14.53-3.87-17.33-7-2.67-3-5.83-9.19-6.12-9.79a19,19,0,0,1-2,.2,15.47,15.47,0,0,0-3.05.34l-1,.27c-.65.16-1.38.34-1.77.49a26.61,26.61,0,0,0-3.23,1.46l-.48.28a2.54,2.54,0,0,0-.77.61l-.07.08a9.29,9.29,0,0,0-1.92,3,28.76,28.76,0,0,0-1.54,7.49c-.44,4-.56,5.88-.4,6.36a5.3,5.3,0,0,1,0,1.5A9,9,0,0,0,2.42,60a.05.05,0,0,0,0,0c.62.52,6.72.11,9.1-.1a31.71,31.71,0,0,0,0-4.73c-.22-2.17.28-6,1.58-7.07a.46.46,0,0,1,.51-.09c1,.5,1.19,5.66,1.08,7.28,0,.44-.08,1-.14,1.54a31.69,31.69,0,0,0-.15,6.89c.23,1.76.35,4.53.46,7,.08,1.88.15,3.5.25,4.35.22,1.78.3,3.87.32,4.26.77.05,8.31.54,8.87.47S31.71,79.57,33.42,79.57Z"/><path class="cls-12" d="M18.8,36.43a16.93,16.93,0,0,0,3,7.2c2.61,3.64,10.59,11.71,20.42,10.92S53.79,51.7,55.61,48.7s2.93-8,2.53-9.74l.08-1-2.77-.19s.71,5.5-1.27,8.35-4.51,7.21-14.12,6S23.86,43,22.54,39.36s-1.28-3.17-1.28-3.17Z"/><path class="cls-11" d="M40.86,54.68a20.77,20.77,0,0,1-11.58-3.87,30.88,30.88,0,0,1-7.52-7.14,16.94,16.94,0,0,1-3-7.23v-.07l2.48-.25,0,0c.08,0,.18,0,1.35,3.24a19.74,19.74,0,0,0,5.63,7.3,22.72,22.72,0,0,0,11.83,5.44c9.17,1.13,11.85-2.77,13.81-5.62l.26-.37c1.94-2.79,1.26-8.24,1.25-8.3V37.7l2.93.2L58.21,39c.4,1.8-.71,6.75-2.54,9.77s-3.76,5.11-13.44,5.89C41.77,54.66,41.31,54.68,40.86,54.68Zm-22-18.19a17.31,17.31,0,0,0,3,7.1c2.94,4.1,11,11.65,20.35,10.89,9.61-.77,11.45-2.71,13.33-5.82,1.77-2.92,2.92-7.93,2.52-9.68h0v0l.08-.92-2.62-.18c.08.71.55,5.67-1.29,8.31l-.25.37c-1.74,2.53-4,5.88-10.86,5.88a24.77,24.77,0,0,1-3.08-.2,22.79,22.79,0,0,1-11.91-5.47,20,20,0,0,1-5.67-7.36,27.26,27.26,0,0,0-1.21-3.12Z"/></g></svg>