<svg id="Layer_1" data-name="Layer 1" xmlns="http://www.w3.org/2000/svg" viewBox="0 0 240.32 53.15"><defs><style>.cls-1{fill:#414042;}</style></defs><path class="cls-1" d="M500.5,540.77a3.5,3.5,0,0,0-.67-.59,4.63,4.63,0,0,0-.86-.45,6.37,6.37,0,0,0-1-.3,5.43,5.43,0,0,0-1.16-.12,4.1,4.1,0,0,0-2.61.68,2.23,2.23,0,0,0-.83,1.84,1.91,1.91,0,0,0,.39,1.27,2.78,2.78,0,0,0,1.23.74c.56.19,1.28.39,2.14.59a15.92,15.92,0,0,1,2.51.73,3.91,3.91,0,0,1,1.63,1.14,3,3,0,0,1,.57,1.93,3.47,3.47,0,0,1-.36,1.63,3.19,3.19,0,0,1-1,1.14,4.3,4.3,0,0,1-1.55.68,8.08,8.08,0,0,1-2,.22,8.93,8.93,0,0,1-2-.22,8,8,0,0,1-1.82-.65,7.18,7.18,0,0,1-1.61-1.1l.67-1.09a4.9,4.9,0,0,0,.87.72,7.5,7.5,0,0,0,1.13.6,6.16,6.16,0,0,0,1.34.41,7.21,7.21,0,0,0,1.48.15,4.59,4.59,0,0,0,2.54-.6A2.19,2.19,0,0,0,500,547a3.38,3.38,0,0,0-1.38-.83,19.31,19.31,0,0,0-2.26-.63,15.63,15.63,0,0,1-2.39-.73,3.25,3.25,0,0,1-1.46-1.06A2.84,2.84,0,0,1,492,542a3.53,3.53,0,0,1,.62-2.13,3.91,3.91,0,0,1,1.71-1.31,6.54,6.54,0,0,1,2.51-.45,7.31,7.31,0,0,1,1.67.18,6,6,0,0,1,1.44.53,5.35,5.35,0,0,1,1.23.86Z" transform="translate(-420.34 -513.93)"/><path class="cls-1" d="M516.36,550.62v1.19h-9.13V538.22h9v1.19h-7.62v4.9h6.64v1.13h-6.64v5.18Z" transform="translate(-420.34 -513.93)"/><path class="cls-1" d="M521.94,551.81V538.22h1.34v12.4h7.85v1.19Z" transform="translate(-420.34 -513.93)"/><path class="cls-1" d="M536.16,551.81V538.22h1.34v13.59Zm.08-15.69v-1.86h1.18v1.86Z" transform="translate(-420.34 -513.93)"/><path class="cls-1" d="M545.3,540.69v11.12H544V538.22h1.11L554,549.55V538.24h1.34v13.57h-1.25Z" transform="translate(-420.34 -513.93)"/><path class="cls-1" d="M575.2,551.9a5.87,5.87,0,0,1-2.6-.57,6.26,6.26,0,0,1-2-1.56,7.49,7.49,0,0,1-1.3-2.22,7.36,7.36,0,0,1-.46-2.54,7.09,7.09,0,0,1,.48-2.59,7.21,7.21,0,0,1,1.35-2.2,6.67,6.67,0,0,1,2-1.53,5.78,5.78,0,0,1,2.52-.56,5.68,5.68,0,0,1,2.6.59,6.34,6.34,0,0,1,2,1.59,7.26,7.26,0,0,1,1.29,2.22,7,7,0,0,1,.46,2.5,7.13,7.13,0,0,1-1.81,4.8,6.44,6.44,0,0,1-2,1.52A5.81,5.81,0,0,1,575.2,551.9Zm-5-6.89a6.18,6.18,0,0,0,.37,2.14,5.57,5.57,0,0,0,1,1.81,5,5,0,0,0,1.6,1.27,4.43,4.43,0,0,0,2,.47,4.52,4.52,0,0,0,2.1-.49,5.14,5.14,0,0,0,1.59-1.3,5.81,5.81,0,0,0,1-1.83,6.37,6.37,0,0,0,.34-2.07,6.29,6.29,0,0,0-.36-2.12,5.86,5.86,0,0,0-1-1.82,5.14,5.14,0,0,0-1.6-1.26,4.71,4.71,0,0,0-4.1,0,5,5,0,0,0-1.59,1.29,5.84,5.84,0,0,0-1,1.83A6.08,6.08,0,0,0,570.17,545Zm3.08-8.89v-1.8h1.11v1.8Zm2.85,0v-1.8h1.11v1.8Z" transform="translate(-420.34 -513.93)"/><path class="cls-1" d="M585.72,550.75,595,539.41h-9.08v-1.19h10.63v1.06l-9.12,11.34h9.11v1.19H585.72Z" transform="translate(-420.34 -513.93)"/><path class="cls-1" d="M607.07,551.9a5.87,5.87,0,0,1-2.6-.57,6.37,6.37,0,0,1-2-1.56,7.49,7.49,0,0,1-1.3-2.22,7.36,7.36,0,0,1-.46-2.54,7.09,7.09,0,0,1,.48-2.59,7.21,7.21,0,0,1,1.35-2.2,6.67,6.67,0,0,1,2-1.53,6,6,0,0,1,5.13,0,6.42,6.42,0,0,1,2,1.59,7.49,7.49,0,0,1,1.3,2.22,7.3,7.3,0,0,1,0,5.1,7.38,7.38,0,0,1-1.34,2.2,6.44,6.44,0,0,1-2,1.52A5.81,5.81,0,0,1,607.07,551.9ZM602,545a6.18,6.18,0,0,0,.37,2.14,5.57,5.57,0,0,0,1,1.81,5.06,5.06,0,0,0,1.6,1.27,4.68,4.68,0,0,0,4.13,0,5.14,5.14,0,0,0,1.59-1.3,5.81,5.81,0,0,0,1-1.83,6.38,6.38,0,0,0,.35-2.07,6.3,6.3,0,0,0-.37-2.12,5.86,5.86,0,0,0-1-1.82,5.14,5.14,0,0,0-1.6-1.26,4.71,4.71,0,0,0-4.1,0,5,5,0,0,0-1.59,1.29,5.84,5.84,0,0,0-1,1.83A6.08,6.08,0,0,0,602,545Z" transform="translate(-420.34 -513.93)"/><path class="cls-1" d="M624.48,551.9a5.55,5.55,0,0,1-2.52-.58,6.51,6.51,0,0,1-2-1.58,7.37,7.37,0,0,1-1.33-2.22,7.08,7.08,0,0,1-.47-2.52,7.42,7.42,0,0,1,.47-2.62,7.13,7.13,0,0,1,1.31-2.19,6.29,6.29,0,0,1,2-1.51,5.7,5.7,0,0,1,2.51-.55,5.87,5.87,0,0,1,3.27.82,5.32,5.32,0,0,1,1.91,2.14l-1,.69a4.29,4.29,0,0,0-1.74-1.85,5,5,0,0,0-2.43-.6,4.3,4.3,0,0,0-2,.48,5,5,0,0,0-1.56,1.28,5.71,5.71,0,0,0-1,1.82,6.51,6.51,0,0,0-.34,2.1,6.33,6.33,0,0,0,.38,2.18,5.83,5.83,0,0,0,1.09,1.81,5.34,5.34,0,0,0,1.64,1.25,4.51,4.51,0,0,0,2,.45,4.68,4.68,0,0,0,2.35-.63,7.07,7.07,0,0,0,2.12-1.92v1.42A5.78,5.78,0,0,1,624.48,551.9Zm-.09-16.37a.93.93,0,0,0,.71-.37,1.54,1.54,0,0,0,.38-.9h.78a1.91,1.91,0,0,1-.54,1.37,1.79,1.79,0,0,1-1.33.57,1.75,1.75,0,0,1-1.33-.57,1.88,1.88,0,0,1-.55-1.37h.81a1.29,1.29,0,0,0,.32.88A1,1,0,0,0,624.39,535.53Zm4.45,10.63h-3v-1H630v6.68h-1.13Z" transform="translate(-420.34 -513.93)"/><path class="cls-1" d="M635.79,551.81V538.22h1.34v12.4H645v1.19Z" transform="translate(-420.34 -513.93)"/><path class="cls-1" d="M654.94,551.9a5.91,5.91,0,0,1-2.72-.57,4.8,4.8,0,0,1-1.76-1.54,7,7,0,0,1-1-2.19,11.15,11.15,0,0,1-.29-2.53v-6.85h1.32v6.85a9.58,9.58,0,0,0,.22,2.07,5.73,5.73,0,0,0,.72,1.82,3.6,3.6,0,0,0,1.33,1.27,5,5,0,0,0,4.26,0,3.69,3.69,0,0,0,1.34-1.29,5.64,5.64,0,0,0,.7-1.81,10,10,0,0,0,.21-2v-6.85h1.34v6.85a10.52,10.52,0,0,1-.31,2.6,6.12,6.12,0,0,1-1,2.18,5,5,0,0,1-1.77,1.5A5.84,5.84,0,0,1,654.94,551.9Z" transform="translate(-420.34 -513.93)"/><path class="cls-1" d="M456,531.78c1.11.19,2.65.42,4.6.7a25.22,25.22,0,0,1,5.86,1.6,14,14,0,0,1,5,3.42,8.45,8.45,0,0,1,2.09,6c0,2.14-1,4.56-2.93,7.25a37.93,37.93,0,0,1-7.6,7.67,48.19,48.19,0,0,1-10.46,6.14,28.65,28.65,0,0,1-11.51,2.51,8.69,8.69,0,0,1-5.44-1.81q-2.37-1.82-2.09-5.72h-.14c0-1,.09-1.63.28-1.81a1.66,1.66,0,0,0,.28-1.12v.14l.14-.14v-.14a1,1,0,0,1,.14-.42,1,1,0,0,0,.13-.42l.56-1,.42-.56.28-.56,1.26-1.67.69-.7.14-.14a.24.24,0,0,1,.14-.21.22.22,0,0,0,.14-.21l.84-1-.14.14-.28.55-.28.28.14,1c0,.09,0,.14-.07.14s-.07,0-.07.14l.14.14a23.63,23.63,0,0,1,1.67-1.75,16.54,16.54,0,0,0,1.54-1.6h-.14v-.14c-.09,0-.33.19-.7.56l-.42.42h.14l-.28.28-.55.69h-.42l-.56.7.56-1,.14-.13.42-.42.41-.7-.28.14.56-1a15.43,15.43,0,0,1,1.54-1.32,13.27,13.27,0,0,0,1.53-1.33v.14l1-.84v.14l.28-.28.14-.13.28-.28.27-.14,2-1.4,1.39-.83.42-.14.14-.14.7-.42a23,23,0,0,1,5-2.3,15.68,15.68,0,0,1,4.95-1.05h.42l-1,.14-.41.14-.7.28a11.28,11.28,0,0,1,2.37-.42h.14c0,.28-.07.4-.21.35a2.28,2.28,0,0,0-1.05.21,25.42,25.42,0,0,0-2.65,1.18,45.09,45.09,0,0,0-5,3.14c-1,.75-2.35,1.75-4,3a55.72,55.72,0,0,0-4.82,4.19,30.66,30.66,0,0,0-4.11,4.88,8.85,8.85,0,0,0-1.75,5,4.2,4.2,0,0,0,.91,2.93,2.73,2.73,0,0,0,2,1,9.78,9.78,0,0,0,1.54-.14,3.48,3.48,0,0,0,1.25-.42.13.13,0,0,0,.14.14.72.72,0,0,0,.28-.07.91.91,0,0,1,.42-.07.57.57,0,0,0,.42-.14.12.12,0,0,0-.14-.14,14.06,14.06,0,0,0,1.67-.49,12.07,12.07,0,0,1,1.68-.49c0-.09.39-.23,1.18-.42a5.62,5.62,0,0,0,1.61-.55v.13c-.1,0-.07,0,.07-.07s.16-.06.07-.06q3.19-1.68,5.51-3a57.41,57.41,0,0,0,4.81-3.14v.14a1.75,1.75,0,0,1,.91-.84,1.72,1.72,0,0,0,.9-.84A.83.83,0,0,1,463,553a8.55,8.55,0,0,1,1.6-1.74q1.18-1.05,1.89-1.74l-.14.14.14.14a1.33,1.33,0,0,0,.35-.56.32.32,0,0,1,.34-.28v-.14h-.13a10,10,0,0,0,2.51-4.74l.28.28v-.56l-.28.28a2.77,2.77,0,0,0,.21-.7c0-.28.07-.46.07-.56a5.65,5.65,0,0,0-2-3.35,12.53,12.53,0,0,0-3.62-2,22.49,22.49,0,0,0-4.47-1.11c-1.58-.24-3.07-.44-4.46-.63l-4.4-.7a21.26,21.26,0,0,1-4.88-1.39,10.65,10.65,0,0,1-3.9-2.79,6.9,6.9,0,0,1-1.61-4.75,1.78,1.78,0,0,1,.07-.42,1.64,1.64,0,0,0,.07-.41,1.12,1.12,0,0,1,.14-.42.42.42,0,0,0,.14-.28.42.42,0,0,1,.14-.28v.14a1.15,1.15,0,0,1,.49-1.12c.42-.37.72-.65.91-.83v-.14l.55-.42.28-.42a8.65,8.65,0,0,0,1.26-.91,9.31,9.31,0,0,1,1.25-.9l.14-.14v.14l.42-.42h-.14c.93-.56,2.05-1.26,3.35-2.09a6.63,6.63,0,0,1,3.49-1.26l1.11-.56v.14l.28-.14.14-.14.42-.14h.28c.37-.09.72-.18,1-.28s.72-.18,1.19-.27l.14-.14v.14l1.67-.42h1.26v-.14H462l1,.14a7.74,7.74,0,0,1,3.21.76,5.36,5.36,0,0,1,2.37,1.89l-.28-.56-.56-.28-1.11-.28.14.14-.42-.14.14.14a4.75,4.75,0,0,1,1.53.7,10.87,10.87,0,0,1,1,.83h.14a16.54,16.54,0,0,1,1,1.61,5.69,5.69,0,0,1,.84,1.88v.14a.33.33,0,0,1-.35-.28,7.06,7.06,0,0,0-.9-1.39v.14c0,.18,0,.28.14.28l-.7-.84v-.14l.28.14a7.27,7.27,0,0,0-1.82-1.26,7,7,0,0,0-3.07-.55,18.79,18.79,0,0,0-4.88.76,35.6,35.6,0,0,0-6.14,2.44l-2.3,1.19a33.23,33.23,0,0,0-3,1.81,22.71,22.71,0,0,0-2.65,2.1,2.89,2.89,0,0,0-1.11,2c0,.46.35.93,1,1.39a13.52,13.52,0,0,0,2.72,1.33,29.87,29.87,0,0,0,3.77,1.11A25.1,25.1,0,0,0,456,531.78Zm-20.51,23.16.28.14.56-.84h-.28Zm2-3.49.14-.14v-.14Zm.14-.28-.14.14A.13.13,0,0,1,437.61,551.17Zm4.47-4.18h.14a.36.36,0,0,1,.14-.28l-.14.14Zm.55-.7c0,.09,0,.14-.13.14l-.28.14c.09-.09.16-.14.2-.14S442.54,546.38,442.63,546.29Zm.14,17.44a4.69,4.69,0,0,0,1.26-.28l.14-.14v.14l.14-.28-.14-.14-.42.14a.79.79,0,0,0-.56.28l-.56-.14Zm.84-17.86.42.56a9.48,9.48,0,0,0,1-.84,3.82,3.82,0,0,1,1-.7l-.14-.28-.69.56c-.1.1-.17.14-.21.14s-.12.1-.21.28h-.14Zm2.23-26.22a.4.4,0,0,0-.14.28ZM446,563c.56-.19,1-.33,1.4-.42l-.28-.14-.84.28Zm.7-19h.14l.28-.28Zm.7-1.12a.4.4,0,0,0-.28.14.42.42,0,0,1-.28.14.42.42,0,0,0,.28-.14A.4.4,0,0,1,447.38,542.94Zm.28-23.43a.2.2,0,0,0-.21.14.24.24,0,0,1-.21.14C447.42,519.6,447.56,519.51,447.66,519.51Zm-.14,24,.14.14c.37-.28.69-.51,1-.7s.61-.37,1-.56l.42-.83-1.68,1.25c-.18.19-.32.28-.41.28Zm2.09,18.27c.28-.09.53-.19.77-.28a5.19,5.19,0,0,0,.62-.28h-.14l-.41-.27-.14.13-.28.14-.28.14-.14.14-.14.14-.42.14h.28l-.42.28c-.19,0-.28.05-.28.14.19-.09.35-.16.49-.21Zm1.11-20.08a1.61,1.61,0,0,1,.42-.28.39.39,0,0,1,.28-.14.42.42,0,0,0,.28-.14l-.28-.28Zm1.4,19.11h-.28a.48.48,0,0,1-.35.14q-.21,0-.21.27ZM452,516.86v-.14l.14.28.14-.14.42-.14.28-.42-1,.42Zm.7,43.24a.55.55,0,0,0-.28.07.77.77,0,0,1-.28.07.77.77,0,0,0,.28-.07A.55.55,0,0,1,452.68,560.1Zm-.28.28.14-.14-.28.14Zm.42-43.52.14-.14a.44.44,0,0,1-.28.14V517Zm4,41.29.49-.28a3.17,3.17,0,0,1,.49-.28v-.42l-.28.28a.38.38,0,0,0-.28.14h.14l-.28.14-.7.69Zm.14-42.83a.33.33,0,0,0-.21.07.27.27,0,0,1-.21.07Zm.42,42h.14c0-.1,0-.14.07-.14s.07,0,.07-.14ZM459.51,515a.12.12,0,0,0,.14.14h.28l-.28-.28Zm1.12,40.32a3.64,3.64,0,0,1-.49.41c-.14.1-.21.19-.21.28Zm1.53-1.12-.28.28H462v-.14Zm.14-39.34h0Zm1,38.36.28-.14h-.28Zm1.11-.83-.27.28.14-.14h-.14A.4.4,0,0,0,464.39,552.43Zm1.26-37a.33.33,0,0,1,.21.07.27.27,0,0,0,.21.07v-.14Z" transform="translate(-420.34 -513.93)"/><path class="cls-1" d="M433.11,549.61a2.93,2.93,0,0,0,.22-.4A2.65,2.65,0,0,0,433.11,549.61Z" transform="translate(-420.34 -513.93)"/><polygon class="cls-1" points="12.07 36.4 12.15 36.25 11.93 36.61 12.07 36.4"/><path class="cls-1" d="M432.16,550.2c-.29.65.15-.06.08.19l-.07.15.28-.5C432.36,550.09,432.11,550.39,432.16,550.2Z" transform="translate(-420.34 -513.93)"/><path class="cls-1" d="M432.72,548.75c-.11.25-.13.2,0,.09l0-.06Z" transform="translate(-420.34 -513.93)"/><path class="cls-1" d="M432.74,548.78s.09-.22,0,0Z" transform="translate(-420.34 -513.93)"/><path class="cls-1" d="M432.55,548.86l.15-.21a1.33,1.33,0,0,1,.12-.29A1.48,1.48,0,0,0,432.55,548.86Z" transform="translate(-420.34 -513.93)"/><path class="cls-1" d="M432.28,549.31l.07-.09C432.37,549.16,432.38,549.13,432.28,549.31Z" transform="translate(-420.34 -513.93)"/><path class="cls-1" d="M432.48,549l-.13.18c-.05.11-.16.31,0-.06C432.3,549.35,432.4,549.17,432.48,549Z" transform="translate(-420.34 -513.93)"/><path class="cls-1" d="M432.46,549.15a1.22,1.22,0,0,1-.22.45C432.35,549.55,432.57,549.1,432.46,549.15Z" transform="translate(-420.34 -513.93)"/><path class="cls-1" d="M431.82,550.85l-.07.2.13-.2C431.82,551,431.92,550.65,431.82,550.85Z" transform="translate(-420.34 -513.93)"/><path class="cls-1" d="M432.5,548.42l-.26.54.11-.14A1.92,1.92,0,0,1,432.5,548.42Z" transform="translate(-420.34 -513.93)"/><path class="cls-1" d="M432.24,549l-.15.21C432.11,549.22,432.17,549.11,432.24,549Z" transform="translate(-420.34 -513.93)"/><polygon class="cls-1" points="11.57 36.08 11.88 35.63 11.56 36.08 11.57 36.08"/><polygon class="cls-1" points="12.03 34.4 12.21 34.1 11.93 34.55 12.03 34.4"/><path class="cls-1" d="M432.24,548.33c.15-.25.21-.45.31-.6a3.15,3.15,0,0,0-.31.44C432.32,548.07,432.32,548.11,432.24,548.33Z" transform="translate(-420.34 -513.93)"/><path class="cls-1" d="M432.05,548.44l.19-.27A1.82,1.82,0,0,0,432.05,548.44Z" transform="translate(-420.34 -513.93)"/><path class="cls-1" d="M432.05,549.07a2.4,2.4,0,0,0,.17-.4l-.18.39Z" transform="translate(-420.34 -513.93)"/><path class="cls-1" d="M432,549.07h0l0,0Z" transform="translate(-420.34 -513.93)"/><path class="cls-1" d="M432.06,549.07h0S432,549.12,432.06,549.07Z" transform="translate(-420.34 -513.93)"/><path class="cls-1" d="M432,549.61a3.17,3.17,0,0,0-.42.75C431.72,550.11,431.79,549.91,432,549.61Z" transform="translate(-420.34 -513.93)"/><path class="cls-1" d="M431.83,549.56v.11c.05-.1.12-.25.18-.35Z" transform="translate(-420.34 -513.93)"/><polygon class="cls-1" points="11.41 35.74 11.49 35.63 11.49 35.59 11.41 35.74"/><path class="cls-1" d="M431.93,548.83c-.1.15-.13.16-.16.17s0,.14,0,.15S432,548.83,431.93,548.83Z" transform="translate(-420.34 -513.93)"/><path class="cls-1" d="M432,549l0,0S431.93,549,432,549Z" transform="translate(-420.34 -513.93)"/><path class="cls-1" d="M431.56,548.89l0,.07,0-.07Z" transform="translate(-420.34 -513.93)"/><path class="cls-1" d="M431.75,549.23c0,.08,0,0,.11-.12s-.06,0-.08,0S431.73,549.24,431.75,549.23Z" transform="translate(-420.34 -513.93)"/><path class="cls-1" d="M431.9,548.58l-.08.23C431.87,548.68,432,548.49,431.9,548.58Z" transform="translate(-420.34 -513.93)"/><path class="cls-1" d="M432,548.89v0Z" transform="translate(-420.34 -513.93)"/><path class="cls-1" d="M432,548.89l-.14.22L432,549Z" transform="translate(-420.34 -513.93)"/><path class="cls-1" d="M430.21,551.28c.19-.35.41-.65.25-.25a20.91,20.91,0,0,0,1.06-2.07,2.78,2.78,0,0,1-.3.48,4.1,4.1,0,0,1-.35.79c-.15.15,0-.15.09-.35-.21.45-.4.6-.73,1.25l.17-.2A3,3,0,0,0,430.21,551.28Z" transform="translate(-420.34 -513.93)"/><path class="cls-1" d="M431.58,549l0,0a3.34,3.34,0,0,1,.19-.51,4.61,4.61,0,0,0-.25.4l.05.1Z" transform="translate(-420.34 -513.93)"/><path class="cls-1" d="M431.7,549a7,7,0,0,0-.53.94c.06,0,.2-.3.31-.45-.13.05.14-.2.19-.45l.1-.08s0-.11.05-.19v0h0s0,.08,0,0h0l-.08.15a.35.35,0,0,1,.08-.15l0,0h0l-.19.17C431.61,549.06,431.64,549.06,431.7,549Z" transform="translate(-420.34 -513.93)"/><path class="cls-1" d="M431.1,551.16l0-.09Z" transform="translate(-420.34 -513.93)"/><path class="cls-1" d="M431.19,550.92s.12-.2.12-.16a3,3,0,0,1-.16.31,1.65,1.65,0,0,0,.24-.45l0,0a5.55,5.55,0,0,1,.27-.69C431.46,550.32,431.34,550.57,431.19,550.92Z" transform="translate(-420.34 -513.93)"/><path class="cls-1" d="M431.39,550.07l-.17.16-.14.34.11-.2C431.18,550.47,431.3,550.22,431.39,550.07Z" transform="translate(-420.34 -513.93)"/><polygon class="cls-1" points="11.31 34.77 11.53 34.37 11.19 34.92 11.31 34.77"/><polygon class="cls-1" points="11.2 34.77 11.39 34.42 11.25 34.62 11.2 34.77"/><path class="cls-1" d="M424.21,550.08l-.08.09Z" transform="translate(-420.34 -513.93)"/><path class="cls-1" d="M424.34,550.2l.11-.16A.6.6,0,0,0,424.34,550.2Z" transform="translate(-420.34 -513.93)"/><path class="cls-1" d="M429.46,547.6c.16-.34.41-.85.19-.47l-.21.38C429.5,547.46,429.49,547.51,429.46,547.6Z" transform="translate(-420.34 -513.93)"/><path class="cls-1" d="M426.72,549l-.06.11.23-.34Z" transform="translate(-420.34 -513.93)"/><path class="cls-1" d="M425.76,550.49l.11-.26A1.83,1.83,0,0,0,425.76,550.49Z" transform="translate(-420.34 -513.93)"/><path class="cls-1" d="M423.18,550l-.27.35S423.06,550.14,423.18,550Z" transform="translate(-420.34 -513.93)"/><path class="cls-1" d="M430.6,548.37c.06-.16.07-.23.06-.26C430.57,548.34,430.42,548.68,430.6,548.37Z" transform="translate(-420.34 -513.93)"/><path class="cls-1" d="M426.76,546.25l-.16.21A.72.72,0,0,0,426.76,546.25Z" transform="translate(-420.34 -513.93)"/><path class="cls-1" d="M430.6,548.07l0,.1c.05,0,.1-.1.1-.06C430.73,547.94,430.76,547.82,430.6,548.07Z" transform="translate(-420.34 -513.93)"/><path class="cls-1" d="M420.63,547.73l0-.05C420.62,547.73,420.62,547.73,420.63,547.73Z" transform="translate(-420.34 -513.93)"/><path class="cls-1" d="M422.51,543.66h.05S422.56,543.63,422.51,543.66Z" transform="translate(-420.34 -513.93)"/><path class="cls-1" d="M431.29,548.35s0,0,0,0Z" transform="translate(-420.34 -513.93)"/><path class="cls-1" d="M430.57,549.91l-.11.18Z" transform="translate(-420.34 -513.93)"/><path class="cls-1" d="M429.1,550.33h0C429.07,550.41,429.07,550.39,429.1,550.33Z" transform="translate(-420.34 -513.93)"/><path class="cls-1" d="M431.22,548.54s0-.1,0-.13A.68.68,0,0,0,431.22,548.54Z" transform="translate(-420.34 -513.93)"/><path class="cls-1" d="M431.32,548.36v0C431.35,548.34,431.37,548.3,431.32,548.36Z" transform="translate(-420.34 -513.93)"/><path class="cls-1" d="M431.25,548.36s0,0,0,0a.16.16,0,0,1,0-.06Z" transform="translate(-420.34 -513.93)"/><path class="cls-1" d="M422.76,547.83l0,0C422.66,547.93,422.68,547.91,422.76,547.83Z" transform="translate(-420.34 -513.93)"/><path class="cls-1" d="M426.71,551.21v0h0Z" transform="translate(-420.34 -513.93)"/><path class="cls-1" d="M426.48,551.45c.3-.45.28-.38.25-.27l.61-1.09Z" transform="translate(-420.34 -513.93)"/><path class="cls-1" d="M423.8,550l-.17.35c-.4.5-.32.29-.58.78.75-1.13.26,0,1-1.13l-.13.26s-.05,0-.05,0c-.29.59.58-.79.55-.58a1.15,1.15,0,0,1-.22.4l.24-.24s-.13.23-.13.2l.15,0,0,0,.42-.54c-.08.18-.09.11-.17.26l.22-.24c-.17.31-.39.57-.4.5-.68,1.17.23-.26-.1.47l-.14.12a4.34,4.34,0,0,0-.4.89,9,9,0,0,1,.78-1.34c0,.1,0,.15.13-.06-.26.41-.16.33-.11.33l-.35.54a7.4,7.4,0,0,0,.49-.64,4.76,4.76,0,0,1-.46.86c0,.13.38-.7.52-.75-.07.25.11,0,.38-.23a3.17,3.17,0,0,1-.29.49l.3-.41a1.81,1.81,0,0,1-.12.22c.13-.15.34-.54.48-.66.38-.59-.45.93,0,.29-.08.16-.21.33-.34.54a9.43,9.43,0,0,0,.71-.84l-.16.39a7.64,7.64,0,0,1,.85-1.25l.24-.48.25-.25a4,4,0,0,1-.32.5l.1-.12a7.23,7.23,0,0,1-.51.82l.18-.36c-.23.32-.47.68-.66,1a.88.88,0,0,1,.11-.13,2.43,2.43,0,0,0-.14.22c0,.06,0-.06.15-.19l-.36.62.15-.24-.13.44a14.32,14.32,0,0,1,1.31-1.62c-.3.43-.45.73-.77,1.26.31-.58-.23.18-.22,0a1.37,1.37,0,0,1-.22.41l.41-.45a1.55,1.55,0,0,0-.26.54c.5-.87.42-.53.62-.77-.17.29-.35.58-.36.48-.34.68.68-1,.4-.38,0,0,0,0-.09.09.18-.23.13,0,0,.25h0c0,.15.25.16.69-.57l-.62,1,1.6-2.37c-.39.62-1.22,2.15-1.5,2.46,0,.1-.07.22.1,0s.51-.92.56-1c-.36.73-.19.39-.47,1a7.27,7.27,0,0,1,.67-1.07c-.09.14-.57,1-.64,1.07l.65-.93a11.87,11.87,0,0,0-.63,1.11c.1-.19.06.06.14,0l.09-.24c0,.2.89-1.32.94-1.21a12,12,0,0,0-.76,1.37c.31-.49,1.47-2.35,1.77-2.69l-.15.29.24-.29c-.46.73-1.47,2.25-1.89,2.83-.1.25-.18.35-.12.35a1,1,0,0,1-.28.4l0,.24c.33-.59.42-.53.7-1l-.48.53c.33-.59,1-1.61,1.05-1.47s-.61,1-.72,1.23c.13-.19.3-.34.23-.19l-.22.29c-.08.25.52-.73.26-.14,0,0-.37.79-.17.44.34-.68,1.51-2.75,1.81-3.24,0,.05-.26.69-.42,1-.27.55-.76,1.23-1,1.69.09-.16.22-.35.26-.41-.06.15-.29.5-.2.45.34-.59.06.1.3-.49.14-.15,0,.15,0,.15a11.25,11.25,0,0,1,.92-1.43c-.09.15-.19.35-.24.44s0,.4,0,.45a5.1,5.1,0,0,1-.29.6c.07-.1.19-.3.22-.3-.23.54-.1,0-.4.69a3.62,3.62,0,0,1,.48-.64c.29-.54,0-.15-.18,0a11.86,11.86,0,0,1,1.17-1.78c.16-.15-.23.5-.17.4.06.2.82-1.24.63-.65s-.51.94-.69,1.29c-.15.15.08-.35,0-.35l-.07.25c-.1.15-.21.25-.15.1-.2.44.17.2.06.64a2.55,2.55,0,0,0,.3-.49l-.06,0c.18-.4.34-.5.4-.7s.45-.64.4-.4l-.28.55c.08-.16.13-.34,0-.19.15-.22-.3.78.1.09l.16-.4c.19-.25.54-.8.5-.6.26-.54,0,.06.25-.59-.38.8-.11-.1-.49.75.35-.75.1-.35.38-1-.09.18-.16.35-.16.24l-.09.15h0v0s0,0,0,0a2.93,2.93,0,0,1-.12.28c-.24.4-.31.35-.44.55a4.22,4.22,0,0,1,.21-.4l-.21.3a5,5,0,0,1,.47-.89l0,0c.09-.24.1-.35,0-.2,0-.09-.3.41-.11.11l-.22.2.06-.1c-.06-.09-.53.56-.23-.2-.08.08-.18.19-.16.05l.18-.34c-.1.1.08-.4-.13,0,.47-.94-.06-.3,0-.49l-.25.44s-.14.05-.29.2l-.22.39c-.23.29,0-.34-.05-.34.09-.15.08-.1,0,0,.42-.93-.54.53-.25-.15-.1.13-.09.07,0,0h0l.09-.22-.1.22s-.07,0-.15.12l.23-.43h0c.07-.16-.13.19-.3.51l-.18.23c.38-.68-.19.2.21-.53a6.46,6.46,0,0,0-.71.92c.06-.1.08-.14.09-.14s0-.2-.09,0l.3-.53-.48.68a5,5,0,0,1,.53-.92c-.45.57-.2.19-.64.77l.21-.34s-.34.43-.19.14c.33-.67-.21-.24,0-.92-.57,1,.21-.49-.26.28a4.44,4.44,0,0,1,.34-.58c-.21.19.13-.43-.32.19.14-.24.23-.34.31-.48,0,.05-.15.19-.07,0a1.87,1.87,0,0,1,.2-.28,7.35,7.35,0,0,0-1,1.39c.17-.34.12-.31-.18.12a1.93,1.93,0,0,1,.34-.53s.05-.42-.29.13c.08-.15,0-.07-.05,0s0-.12-.1-.1l0,.1c-.43.64-.14.12-.23.17l0-.07c.2-.53-.18.2,0-.4l-.24.41c-.56.87.23-.57,0-.27l-.12.24c-.22.28.66-1.24.7-1.37a.75.75,0,0,1,.13-.16c.25-.57-.35.52-.49.61a5.2,5.2,0,0,0,.47-.8c.13-.24-.71.85-.41.27a3.9,3.9,0,0,1-.39.6c-.1,0,.42-.91-.07-.24l.1-.18a4.17,4.17,0,0,0-.56.59c.87-1.41-.65.54.19-.74h-.15l.09-.13c0-.13-.23.16-.46.45.05-.09.14-.21.18-.27.08-.32,0-.27-.47.31l.27-.42c-.18.22.29-.74-.12-.32l.13-.18c-.43.42.53-1.3-.52.17l-.32.32c0,.17-.45.64-.59.91-.09.06.22-.51.31-.56l0,.08c.55-.77.08-.35.44-.88-.2-.08-.07-.62-.21-.77l-.4.61,0-.07c.08-.15.31-.48.33-.43.22-.35-.26.24-.36.37a3.53,3.53,0,0,1,.51-.71l-.06,0-.05.08c-.19.22-.38.48-.41.42s.25-.38.25-.42,0-.06,0,0l0-.1-.3.5c-.2.21,0-.08-.4.48.54-.86-.05-.48.1-.76-.29.31-.33.27-.35.19-.06.11-.43.64-.43.55.8-1.08.26-.54.79-1.34-.35.54-.23,0-.71.8,0-.11.29-.41.45-.68-.4.35,0-.42-.21-.36a6.58,6.58,0,0,1-.43.56l.46-.75c-.07.06-.62.8-.3.28a2.16,2.16,0,0,1-.25.35c.29-.85-.88.22-.12-1.23-.18.29-.22.31-.25.3s-.26.34-.4.54l.31-.6c-.42.51-.13,0-.52.45L422,544c-.49.56-1,1.35-1.54,2.11.56-.64-.64,1.09.17.18-.1.17-.2.24-.33.42.27-.31.34-.36.28-.18l-.07.07c.18,0,0,.38,0,.69l.27-.38a1.38,1.38,0,0,1-.15.3c.47-.55-.05-.1.45-.71-.54.8.2.17-.43,1.06,0,0,.31-.45.36-.41l-.17.25.24-.3a3.28,3.28,0,0,1-.36.59s-.06,0-.09.05c-.16.31.18,0,.13.08l.06-.17c.29-.14.21.29.69-.11l.12-.19c.34-.27-.07.25.14.17l0,0c.15-.16.24-.24.25-.2-.18.2-.25.45-.45.66a5.28,5.28,0,0,0,.8-.87l-.2.31c.22-.26.32-.4.43-.44-.23.23-.3.48-.59.79-.36.74.63-.56,0,.44.65-.8.24-.53.4-.69s.48-.59.45-.49-.7,1.12-.6,1.16-.05,0-.06,0c-.12.24.27-.24.06.13.38-.49,0,.07.49-.57l-.18.09c.16-.14.74-.87.55-.45-.1.13-.24.28-.32.37s.13-.1,0,.11c-.46.65-.19.08-.58.54-.17.29.42-.41-.1.28.66-.87,0,.17.54-.47l-.28.39c.06-.06.2-.23.21-.21l-.38.49c.35-.4-.17.44,0,.23-.1-.05.3-.48.46-.79.48-.44-.64,1.06-.38,1-.05,0,.1-.28.25-.45a2.37,2.37,0,0,1-.23.49c.15,0,.27-.41.47-.63-.3.5.18-.16.32-.29l-.27.4c-.08.32.59-.81.47-.44l-.42.53.15-.12-.32.45c.28-.3.23-.2.2,0a2.76,2.76,0,0,1,.55-.7c-.13.25-.28.36-.17.35-.19.24-.42.54-.19.16l-.28.36c-.15.3,0,.12.07.13a.18.18,0,0,1,0-.11l.46-.49a2.5,2.5,0,0,1-.27.38c.05,0,.18-.2.23-.22a6.39,6.39,0,0,1-.59.79l.33-.31a5.47,5.47,0,0,1-.31.54c-.08.22.55-.56.44-.26a1.14,1.14,0,0,1,.14-.16c0,.12-.2.55.17.15l-.35.62c.14-.1.43-.78.67-.94s-.3.52-.39.7c.23-.28.68-.84.43-.32C423.81,550,423.85,549.94,423.8,550Zm.86.19c-.06.07-.26.32-.12.07C424.86,549.78,424.73,550,424.66,550.16Zm1.67-.33c-.09.13-.06,0,0-.11S426.38,549.71,426.33,549.83Zm4.58-1.24,0,0C431,548.43,430.93,548.5,430.91,548.59Zm0,.22.1-.18c-.07.11-.08.11-.08.07S430.8,548.89,430.87,548.81ZM424.44,545l-.06.12C424.28,545.25,424.36,545.15,424.44,545Z" transform="translate(-420.34 -513.93)"/><path class="cls-1" d="M425.87,550.32l.13-.23A1,1,0,0,0,425.87,550.32Z" transform="translate(-420.34 -513.93)"/><polygon class="cls-1" points="2.89 35.97 2.89 35.96 2.84 36.03 2.89 35.97"/><path class="cls-1" d="M427.92,551.85a1.46,1.46,0,0,1,.1-.23A.64.64,0,0,0,427.92,551.85Z" transform="translate(-420.34 -513.93)"/><path class="cls-1" d="M431.58,548.26l-.1.09s0,.08,0,.15A1,1,0,0,1,431.58,548.26Z" transform="translate(-420.34 -513.93)"/><path class="cls-1" d="M430.52,551.08c0-.05,0,0,.05-.05l.1-.2A.46.46,0,0,0,430.52,551.08Z" transform="translate(-420.34 -513.93)"/><path class="cls-1" d="M430.86,549.69c-.19.36-.1.25,0,.2h0C431.09,549.39,431,549.54,430.86,549.69Z" transform="translate(-420.34 -513.93)"/><path class="cls-1" d="M430.84,549.88s0,0,0,0C431,549.69,430.88,549.84,430.84,549.88Z" transform="translate(-420.34 -513.93)"/><path class="cls-1" d="M431.07,548.61c0,.1.26-.45.18-.3C431.51,547.86,430.87,548.81,431.07,548.61Z" transform="translate(-420.34 -513.93)"/><polygon class="cls-1" points="9.91 36.95 10.14 36.51 9.93 36.86 9.91 36.95"/><path class="cls-1" d="M430.2,550.44l0,.15a.54.54,0,0,1,.1-.15S430.27,550.31,430.2,550.44Z" transform="translate(-420.34 -513.93)"/><path class="cls-1" d="M430.28,550.44s0,0,.07-.05S430.32,550.39,430.28,550.44Z" transform="translate(-420.34 -513.93)"/><polygon class="cls-1" points="9.78 37.05 9.81 36.96 9.8 36.91 9.78 37.05"/><path class="cls-1" d="M429.77,550.09l-.12.1c-.09.15-.13.25-.07.2A1.56,1.56,0,0,0,429.77,550.09Z" transform="translate(-420.34 -513.93)"/><path class="cls-1" d="M429.26,551.38c0-.1.09-.2.16-.35l-.3.55Z" transform="translate(-420.34 -513.93)"/><path class="cls-1" d="M429,551.43c-.08.14-.31.39-.22.39C428.9,551.67,429,551.58,429,551.43Z" transform="translate(-420.34 -513.93)"/><polygon class="cls-1" points="8.34 36.4 8.36 36.4 8.86 35.51 8.34 36.4"/><path class="cls-1" d="M426.81,552.06c-.06.25.33-.53.23-.24.13-.2.08-.24.2-.41A2.11,2.11,0,0,0,426.81,552.06Z" transform="translate(-420.34 -513.93)"/><path class="cls-1" d="M427.24,551.41l.1-.12A.35.35,0,0,0,427.24,551.41Z" transform="translate(-420.34 -513.93)"/><polygon class="cls-1" points="2.38 29.21 2.48 29.02 2.29 29.3 2.38 29.21"/><path class="cls-1" d="M422.2,543.69l.39-.52-.38.45S422.28,543.57,422.2,543.69Z" transform="translate(-420.34 -513.93)"/><path class="cls-1" d="M424.07,551.32l.08-.13c.09-.14.09-.16.08-.19Z" transform="translate(-420.34 -513.93)"/><polygon class="cls-1" points="3.48 36.66 3.48 36.68 3.78 36.17 3.48 36.66"/><path class="cls-1" d="M423,550.94s.1-.07.1,0S423.38,550.32,423,550.94Z" transform="translate(-420.34 -513.93)"/><path class="cls-1" d="M441,543.1s.22-.31.27-.37A3.28,3.28,0,0,0,441,543.1Z" transform="translate(-420.34 -513.93)"/><polygon class="cls-1" points="19.86 29.8 19.96 29.66 19.69 29.98 19.86 29.8"/><path class="cls-1" d="M440,543.56c-.37.61.15,0,.06.2l-.08.14.33-.47C440.17,543.47,439.89,543.75,440,543.56Z" transform="translate(-420.34 -513.93)"/><path class="cls-1" d="M440.68,542.18c-.15.24-.16.18,0,.09l0-.06A0,0,0,0,1,440.68,542.18Z" transform="translate(-420.34 -513.93)"/><path class="cls-1" d="M440.69,542.21s.12-.21,0,0Z" transform="translate(-420.34 -513.93)"/><path class="cls-1" d="M440.49,542.26l.17-.18c.08-.14.07-.2.15-.29A1.39,1.39,0,0,0,440.49,542.26Z" transform="translate(-420.34 -513.93)"/><path class="cls-1" d="M440.17,542.68l.07-.08C440.28,542.54,440.29,542.52,440.17,542.68Z" transform="translate(-420.34 -513.93)"/><path class="cls-1" d="M440.4,542.44l-.16.16c-.05.1-.18.29.06-.05C440.19,542.72,440.3,542.56,440.4,542.44Z" transform="translate(-420.34 -513.93)"/><path class="cls-1" d="M440.36,542.55a1.11,1.11,0,0,1-.26.42C440.22,542.93,440.49,542.5,440.36,542.55Z" transform="translate(-420.34 -513.93)"/><path class="cls-1" d="M439.54,544.16l-.09.2.16-.19C439.53,544.26,439.66,544,439.54,544.16Z" transform="translate(-420.34 -513.93)"/><path class="cls-1" d="M440.47,541.81l-.31.51.12-.12A2.57,2.57,0,0,1,440.47,541.81Z" transform="translate(-420.34 -513.93)"/><path class="cls-1" d="M440.16,542.32l-.18.2C440,542.57,440.07,542.47,440.16,542.32Z" transform="translate(-420.34 -513.93)"/><polygon class="cls-1" points="19.39 29.41 19.75 28.99 19.37 29.41 19.39 29.41"/><polygon class="cls-1" points="20 27.77 20.21 27.5 19.88 27.91 20 27.77"/><path class="cls-1" d="M440.21,541.69c.17-.23.24-.43.36-.57a3.42,3.42,0,0,0-.36.4C440.3,541.43,440.31,541.47,440.21,541.69Z" transform="translate(-420.34 -513.93)"/><path class="cls-1" d="M440,541.77l.21-.25C440.17,541.57,440.1,541.64,440,541.77Z" transform="translate(-420.34 -513.93)"/><path class="cls-1" d="M440,542.41a3.39,3.39,0,0,0,.2-.38l-.21.37Z" transform="translate(-420.34 -513.93)"/><path class="cls-1" d="M439.94,542.41h0a.06.06,0,0,1,0,0Z" transform="translate(-420.34 -513.93)"/><path class="cls-1" d="M440,542.42h0S439.93,542.46,440,542.42Z" transform="translate(-420.34 -513.93)"/><path class="cls-1" d="M439.84,543a2.81,2.81,0,0,0-.49.7C439.52,543.42,439.61,543.23,439.84,543Z" transform="translate(-420.34 -513.93)"/><path class="cls-1" d="M439.69,542.88l0,.1c.06-.09.15-.23.22-.32Z" transform="translate(-420.34 -513.93)"/><polygon class="cls-1" points="19.25 29.05 19.34 28.95 19.35 28.91 19.25 29.05"/><path class="cls-1" d="M439.85,542.15c-.12.15-.14.15-.18.16s0,.14,0,.15S439.89,542.16,439.85,542.15Z" transform="translate(-420.34 -513.93)"/><path class="cls-1" d="M439.87,542.31v0S439.83,542.37,439.87,542.31Z" transform="translate(-420.34 -513.93)"/><path class="cls-1" d="M439.46,542.17l0,.07,0-.06Z" transform="translate(-420.34 -513.93)"/><path class="cls-1" d="M439.63,542.53c0,.08,0,0,.12-.1s-.06,0-.08,0S439.61,542.55,439.63,542.53Z" transform="translate(-420.34 -513.93)"/><path class="cls-1" d="M439.83,541.9l-.09.22C439.8,542,439.9,541.81,439.83,541.9Z" transform="translate(-420.34 -513.93)"/><path class="cls-1" d="M439.92,542.23v0Z" transform="translate(-420.34 -513.93)"/><path class="cls-1" d="M439.92,542.23l-.17.2.11-.1Z" transform="translate(-420.34 -513.93)"/><path class="cls-1" d="M437.91,544.44c.21-.34.46-.61.27-.23a22.84,22.84,0,0,0,1.24-2,2.93,2.93,0,0,1-.35.45,3.91,3.91,0,0,1-.41.76c-.17.14,0-.15.12-.34-.25.43-.46.56-.84,1.18l.18-.19A3.13,3.13,0,0,0,437.91,544.44Z" transform="translate(-420.34 -513.93)"/><path class="cls-1" d="M439.47,542.32l0,0a4.48,4.48,0,0,1,.23-.49,3.22,3.22,0,0,0-.29.38l.05.1Z" transform="translate(-420.34 -513.93)"/><path class="cls-1" d="M439.59,542.34a7.7,7.7,0,0,0-.61.89c.06,0,.23-.28.36-.42-.14,0,.15-.19.23-.43a.3.3,0,0,1,.1-.07,1.6,1.6,0,0,1,.07-.19l0,0h0l0,.05h0l-.09.14a.33.33,0,0,1,.09-.14l0-.05h0l-.2.15C439.5,542.35,439.53,542.36,439.59,542.34Z" transform="translate(-420.34 -513.93)"/><path class="cls-1" d="M438.8,544.4l.05-.08Z" transform="translate(-420.34 -513.93)"/><path class="cls-1" d="M438.91,544.16s.14-.18.13-.14a1.66,1.66,0,0,1-.19.3,1.51,1.51,0,0,0,.29-.44l0,0c0-.14.31-.62.34-.67Z" transform="translate(-420.34 -513.93)"/><path class="cls-1" d="M439.19,543.34l-.18.14-.17.33.12-.19C439,543.72,439.09,543.48,439.19,543.34Z" transform="translate(-420.34 -513.93)"/><polygon class="cls-1" points="19.23 28.06 19.48 27.68 19.09 28.2 19.23 28.06"/><polygon class="cls-1" points="19.11 28.05 19.33 27.72 19.18 27.91 19.11 28.05"/><path class="cls-1" d="M432.13,543.23l-.07.09A.71.71,0,0,0,432.13,543.23Z" transform="translate(-420.34 -513.93)"/><path class="cls-1" d="M432.26,543.34l.1-.17A1,1,0,0,0,432.26,543.34Z" transform="translate(-420.34 -513.93)"/><path class="cls-1" d="M437.34,540.7c.17-.33.44-.84.21-.46l-.22.37C437.39,540.56,437.38,540.61,437.34,540.7Z" transform="translate(-420.34 -513.93)"/><path class="cls-1" d="M434.56,542l-.06.12.24-.34Z" transform="translate(-420.34 -513.93)"/><path class="cls-1" d="M433.62,543.56l.1-.26A2.77,2.77,0,0,0,433.62,543.56Z" transform="translate(-420.34 -513.93)"/><path class="cls-1" d="M431.15,543.19l-.24.37S431,543.38,431.15,543.19Z" transform="translate(-420.34 -513.93)"/><path class="cls-1" d="M438.5,541.56c.07-.16.09-.23.08-.26C438.48,541.53,438.3,541.86,438.5,541.56Z" transform="translate(-420.34 -513.93)"/><path class="cls-1" d="M434.53,539.3a.71.71,0,0,0-.15.22C434.43,539.46,434.47,539.39,434.53,539.3Z" transform="translate(-420.34 -513.93)"/><path class="cls-1" d="M438.51,541.26l0,.09c0-.05.1-.09.11-.05C438.66,541.13,438.69,541,438.51,541.26Z" transform="translate(-420.34 -513.93)"/><path class="cls-1" d="M428.6,541.34l0-.05C428.59,541.34,428.59,541.34,428.6,541.34Z" transform="translate(-420.34 -513.93)"/><path class="cls-1" d="M429.88,537.05s0,0,.05,0S429.93,537,429.88,537.05Z" transform="translate(-420.34 -513.93)"/><path class="cls-1" d="M439.21,541.6s0,0,0,0Z" transform="translate(-420.34 -513.93)"/><path class="cls-1" d="M438.38,543.1l-.13.17Z" transform="translate(-420.34 -513.93)"/><path class="cls-1" d="M436.89,543.43h0C436.85,543.5,436.86,543.49,436.89,543.43Z" transform="translate(-420.34 -513.93)"/><path class="cls-1" d="M439.14,541.78s0-.09,0-.12A.83.83,0,0,0,439.14,541.78Z" transform="translate(-420.34 -513.93)"/><path class="cls-1" d="M439.24,541.61v0C439.28,541.59,439.3,541.56,439.24,541.61Z" transform="translate(-420.34 -513.93)"/><path class="cls-1" d="M439.18,541.6s0,0,0,.06l0-.06Z" transform="translate(-420.34 -513.93)"/><path class="cls-1" d="M430.64,541.15l0,0C430.55,541.26,430.57,541.23,430.64,541.15Z" transform="translate(-420.34 -513.93)"/><path class="cls-1" d="M434.51,544.24h0v0Z" transform="translate(-420.34 -513.93)"/><path class="cls-1" d="M434.28,544.48c.31-.44.29-.38.25-.27l.63-1.08Z" transform="translate(-420.34 -513.93)"/><path class="cls-1" d="M431.74,543.15l-.15.36a3,3,0,0,0-.54.81c.69-1.17.24,0,.94-1.19l-.12.27s0,.05,0,0c-.28.6.54-.82.51-.61a1.23,1.23,0,0,1-.21.41l.23-.25s-.12.23-.12.2l.14,0,0,0,.4-.55c-.08.18-.08.11-.16.26l.21-.25c-.16.31-.37.58-.38.52-.64,1.19.22-.27-.09.47l-.13.12a4.19,4.19,0,0,0-.38.9,9.26,9.26,0,0,1,.74-1.36c0,.1-.05.15.12-.07-.25.42-.16.33-.11.33l-.33.55c.13-.14.3-.42.47-.65a4.84,4.84,0,0,1-.44.87c0,.13.36-.71.5-.77-.07.25.1.05.36-.24a3.87,3.87,0,0,1-.28.5l.29-.42a1,1,0,0,1-.12.21c.13-.15.33-.54.47-.67.37-.59-.44.94,0,.29-.08.17-.21.33-.33.55a11,11,0,0,0,.69-.86l-.17.4a8.46,8.46,0,0,1,.84-1.27l.24-.47.25-.25a4.41,4.41,0,0,1-.31.5l.09-.13a6.24,6.24,0,0,1-.5.82l.17-.35c-.22.32-.45.68-.64,1A.52.52,0,0,1,434,543l-.14.22c0,.06.05,0,.14-.19l-.35.62.15-.24-.14.44a14.61,14.61,0,0,1,1.31-1.63c-.3.43-.45.73-.78,1.26.31-.58-.22.18-.21,0a2.17,2.17,0,0,1-.23.41l.41-.45a1.69,1.69,0,0,0-.26.53c.5-.87.42-.53.62-.77-.17.29-.36.58-.37.48-.34.68.68-1,.4-.38,0,0,0-.05-.09.09.19-.24.13,0,0,.25h0c0,.15.23.15.69-.57l-.64,1,1.64-2.35c-.4.61-1.26,2.13-1.54,2.44,0,.1-.08.21.09,0s.53-.92.58-1c-.38.73-.2.4-.5,1a8.54,8.54,0,0,1,.69-1.06c-.09.15-.59,1-.66,1.06l.66-.91c-.12.16-.5.81-.65,1.09.11-.19.05.06.13,0l.11-.24c0,.19.91-1.3,1-1.19a11.12,11.12,0,0,0-.81,1.34c.32-.48,1.55-2.3,1.86-2.63l-.16.29.25-.28c-.49.71-1.56,2.2-2,2.77-.11.24-.2.33-.14.34a.91.91,0,0,1-.29.38v.24c.35-.57.44-.52.73-1l-.49.52c.35-.57,1.08-1.58,1.1-1.43s-.65,1-.77,1.2c.14-.19.31-.33.23-.18l-.22.28c-.09.24.54-.71.25-.14,0,0-.4.77-.19.44.38-.67,1.63-2.69,2-3.16,0,0-.3.68-.48,1-.29.53-.8,1.19-1.05,1.64.1-.15.23-.33.28-.39-.07.14-.31.48-.23.43.37-.57.06.1.33-.47.14-.14,0,.14,0,.15a10,10,0,0,1,1-1.38,4.93,4.93,0,0,0-.26.43c.05.1-.07.39,0,.44a4.07,4.07,0,0,1-.32.58,1.26,1.26,0,0,1,.24-.28c-.27.52-.1,0-.45.66a4,4,0,0,1,.53-.61c.31-.52,0-.15-.19,0a12,12,0,0,1,1.28-1.7c.18-.14-.27.48-.19.38,0,.21.89-1.17.67-.6s-.58.91-.78,1.24c-.16.14.11-.34.06-.34l-.09.24c-.11.14-.22.23-.16.09-.22.43.16.21,0,.64a3,3,0,0,0,.34-.47l-.07,0c.21-.38.38-.47.46-.66s.5-.61.43-.36l-.33.52c.1-.15.17-.33.05-.18.17-.22-.36.75.1.09l.19-.38c.2-.24.6-.75.55-.56.3-.52-.05,0,.3-.56-.45.76-.11-.12-.56.69.41-.71.12-.33.46-1-.11.17-.2.33-.18.22l-.11.15v0l0,0s0,0,0,0l-.14.28c-.27.37-.33.32-.48.51,0-.1.13-.19.23-.38l-.22.28a4.52,4.52,0,0,1,.53-.86l0,0c.1-.23.12-.34,0-.2,0-.1-.33.38-.12.1l-.24.18.06-.1c-.05-.1-.56.53-.22-.22-.09.08-.19.18-.17,0l.2-.33c-.11.09.1-.4-.13-.07.52-.91-.05-.3,0-.49l-.27.42s-.15.05-.31.19l-.23.38c-.24.28,0-.34-.05-.35.1-.14.09-.09.05,0,.45-.91-.57.51-.26-.16-.11.12-.09.07,0,0h0l.09-.22-.1.22s-.07,0-.15.11l.24-.42h0c.07-.16-.14.18-.32.5-.05.06-.11.13-.18.23.39-.67-.2.18.21-.54a7.16,7.16,0,0,0-.73.91c.06-.1.08-.14.09-.14s.06-.2-.09,0l.31-.53-.49.67a4.5,4.5,0,0,1,.54-.91c-.46.57-.2.19-.65.76l.21-.33s-.35.42-.19.13c.34-.67-.21-.25,0-.93-.58,1,.21-.49-.27.28a4.3,4.3,0,0,1,.35-.57c-.22.18.11-.44-.33.18.13-.24.22-.34.3-.48,0,0-.15.19-.07,0a1.36,1.36,0,0,1,.21-.28,6.47,6.47,0,0,0-1,1.39c.16-.34.12-.31-.18.12a2,2,0,0,1,.33-.53c0-.05,0-.42-.29.13.08-.15,0-.07-.05,0s0-.12-.1-.1l0,.1c-.42.65-.14.12-.23.17l0-.06c.18-.54-.18.2,0-.41l-.24.42c-.53.88.22-.58,0-.28l-.12.25c-.21.29.63-1.26.66-1.39a.84.84,0,0,1,.13-.17c.23-.57-.33.54-.47.62a5.86,5.86,0,0,0,.45-.81c.11-.25-.69.87-.42.28a3.9,3.9,0,0,1-.37.62c-.09,0,.38-.93-.08-.24a.77.77,0,0,1,.1-.18,2.72,2.72,0,0,0-.54.61c.8-1.45-.63.56.14-.75h-.14l.08-.13c0-.13-.23.18-.44.48a2.52,2.52,0,0,1,.16-.29c.06-.32,0-.27-.45.34l.24-.44c-.17.24.24-.75-.15-.31a1.62,1.62,0,0,1,.13-.19c-.41.44.41-1.34-.53.2l-.29.34c0,.18-.41.67-.52,1-.09.07.18-.53.27-.58l0,.08c.49-.81.05-.36.37-.91-.21-.07-.13-.63-.29-.76l-.34.65,0-.08c.07-.15.26-.51.29-.45.18-.38-.25.26-.33.39.06-.3.46-.72.44-.75l-.06,0,0,.08c-.17.24-.33.51-.37.45s.21-.4.21-.43,0-.07,0,0l-.05-.1-.25.52c-.17.23-.06-.07-.34.52.44-.9-.11-.47,0-.76-.26.34-.3.3-.34.23,0,.11-.35.68-.36.58.67-1.16.19-.56.62-1.42-.27.58-.22.06-.61.88,0-.12.25-.44.37-.73-.36.4-.06-.42-.27-.34s-.2.4-.35.62l.36-.81c-.07.06-.52.88-.27.32a2.29,2.29,0,0,1-.2.37c.16-.88-.84.35-.32-1.21-.13.32-.17.34-.2.34s-.21.38-.32.59l.21-.64c-.33.57-.13,0-.44.53l.08-.08c-.39.63-.72,1.49-1.18,2.33.45-.72-.48,1.18.18.15-.07.18-.16.26-.26.46.22-.35.28-.41.24-.22l-.05.08c.17,0,0,.37,0,.68l.22-.42a1.1,1.1,0,0,1-.11.32c.38-.61-.06-.08.35-.76-.42.87.21.13-.29,1.1,0,0,.25-.48.29-.45l-.13.26.2-.32a3.32,3.32,0,0,1-.29.62s-.05.05-.07.07c-.13.32.17-.05.13.06l0-.18c.26-.18.23.25.64-.21l.1-.2c.29-.31,0,.26.15.15l0,0c.13-.18.21-.27.23-.23-.15.22-.2.47-.38.71a5.57,5.57,0,0,0,.7-1l-.17.34c.19-.28.28-.44.38-.49-.2.25-.25.51-.5.85-.29.77.56-.63,0,.44.55-.87.18-.55.32-.73s.42-.64.4-.54-.59,1.18-.49,1.21,0,.06,0,0c-.1.25.24-.27.07.12.32-.53,0,.06.43-.62l-.17.11c.14-.15.64-.94.49-.5-.08.13-.21.3-.28.4s.12-.11,0,.11c-.39.68-.18.09-.52.59-.14.31.37-.45-.08.29.58-.93,0,.16.49-.53l-.24.41c.05-.06.18-.24.19-.22l-.34.52c.31-.43-.13.45,0,.22-.1,0,.27-.51.4-.83.43-.48-.55,1.12-.31,1-.05,0,.08-.28.21-.46a2.21,2.21,0,0,1-.19.5c.14,0,.23-.43.41-.66-.25.52.16-.18.29-.32l-.24.42c0,.33.53-.86.43-.48l-.37.56.13-.13-.28.47c.25-.32.22-.22.19-.06a3.08,3.08,0,0,1,.49-.74c-.11.26-.24.39-.15.36-.16.26-.36.58-.17.18l-.24.38c-.14.31,0,.11.06.12a.45.45,0,0,1,0-.11l.43-.53a3,3,0,0,1-.24.41s.16-.22.21-.24a7,7,0,0,1-.53.82l.3-.33a5.64,5.64,0,0,1-.28.55c-.06.23.5-.59.41-.29a.7.7,0,0,1,.13-.16c0,.11-.18.55.16.13l-.32.63c.14-.11.4-.8.62-1s-.28.53-.35.71c.21-.29.63-.88.4-.35C431.75,543.21,431.79,543.11,431.74,543.15Zm.83.12c-.07.08-.25.34-.11.09C432.75,542.89,432.63,543.12,432.57,543.27Zm1.61-.38c-.09.13-.06.05,0-.12C434.23,542.75,434.23,542.77,434.18,542.89Zm4.63-1.09,0,0C438.86,541.65,438.84,541.72,438.81,541.8Zm-.06.22a1,1,0,0,0,.12-.17c-.07.1-.09.1-.09.06C438.72,542,438.68,542.1,438.75,542ZM432,538.21l-.05.12C431.9,538.43,432,538.33,432,538.21Z" transform="translate(-420.34 -513.93)"/><path class="cls-1" d="M433.73,543.38l.13-.23A1,1,0,0,0,433.73,543.38Z" transform="translate(-420.34 -513.93)"/><polygon class="cls-1" points="10.86 29.2 10.86 29.19 10.81 29.27 10.86 29.2"/><path class="cls-1" d="M435.64,544.89a1,1,0,0,1,.11-.23A.55.55,0,0,0,435.64,544.89Z" transform="translate(-420.34 -513.93)"/><path class="cls-1" d="M439.52,541.54l-.11.08s0,.08-.05.15A1.32,1.32,0,0,1,439.52,541.54Z" transform="translate(-420.34 -513.93)"/><path class="cls-1" d="M438.24,544.26s0,0,.05,0l.12-.19S438.26,544.16,438.24,544.26Z" transform="translate(-420.34 -513.93)"/><path class="cls-1" d="M438.69,542.91c-.22.34-.12.24-.05.19h0C439,542.63,438.82,542.77,438.69,542.91Z" transform="translate(-420.34 -513.93)"/><path class="cls-1" d="M438.65,543.1s0,0,0,0C438.81,542.92,438.7,543.06,438.65,543.1Z" transform="translate(-420.34 -513.93)"/><path class="cls-1" d="M439,541.84c-.05.1.28-.43.2-.29C439.48,541.13,438.76,542,439,541.84Z" transform="translate(-420.34 -513.93)"/><polygon class="cls-1" points="17.64 30.12 17.91 29.69 17.67 30.02 17.64 30.12"/><path class="cls-1" d="M438,543.6l0,.15c.05-.08.08-.11.1-.14S438.05,543.48,438,543.6Z" transform="translate(-420.34 -513.93)"/><path class="cls-1" d="M438,543.61s0,0,.08-.05S438.09,543.56,438,543.61Z" transform="translate(-420.34 -513.93)"/><polygon class="cls-1" points="17.5 30.21 17.55 30.11 17.54 30.06 17.5 30.21"/><path class="cls-1" d="M437.56,543.23l-.12.09c-.1.14-.14.24-.09.19A1.7,1.7,0,0,0,437.56,543.23Z" transform="translate(-420.34 -513.93)"/><path class="cls-1" d="M437,544.47c0-.09.1-.19.18-.33l-.33.52Z" transform="translate(-420.34 -513.93)"/><path class="cls-1" d="M436.76,544.51c-.1.14-.34.37-.26.38S436.72,544.66,436.76,544.51Z" transform="translate(-420.34 -513.93)"/><polygon class="cls-1" points="16.13 29.47 16.15 29.47 16.69 28.61 16.13 29.47"/><path class="cls-1" d="M434.57,545.08c-.08.25.34-.52.23-.23.14-.2.09-.24.21-.41A2.06,2.06,0,0,0,434.57,545.08Z" transform="translate(-420.34 -513.93)"/><path class="cls-1" d="M435,544.44l.1-.12Z" transform="translate(-420.34 -513.93)"/><polygon class="cls-1" points="9.66 22.57 9.72 22.36 9.59 22.67 9.66 22.57"/><path class="cls-1" d="M429.57,537.12l.3-.58-.3.51S429.63,537,429.57,537.12Z" transform="translate(-420.34 -513.93)"/><path class="cls-1" d="M432,544.46l.08-.14c.08-.14.08-.16.08-.19Z" transform="translate(-420.34 -513.93)"/><polygon class="cls-1" points="11.43 29.83 11.43 29.84 11.71 29.33 11.43 29.83"/><path class="cls-1" d="M431,544.16s.09-.07.1,0S431.35,543.53,431,544.16Z" transform="translate(-420.34 -513.93)"/></svg>