<svg id="Layer_1" data-name="Layer 1" xmlns="http://www.w3.org/2000/svg" viewBox="0 0 24 24"><defs><style>.cls-1{fill:#52474a;}</style></defs><path class="cls-1" d="M20.11,14.88a9.35,9.35,0,0,0,.45-2,.09.09,0,0,1,.12-.06c.51.23,1,.48,1.53.76a14.31,14.31,0,0,1,1.48.95c.06,0,0,.15,0,.17q-.88.15-1.74.21a16.45,16.45,0,0,1-1.72,0C20.13,15,20.09,14.92,20.11,14.88Z"/><path class="cls-1" d="M18.64,17.48l.3-.4c.1-.14.21-.27.29-.41a7.58,7.58,0,0,0,.49-.88.08.08,0,0,1,.13,0A15.66,15.66,0,0,1,21,17a16.92,16.92,0,0,1,1.06,1.39.1.1,0,0,1-.09.15,15.77,15.77,0,0,1-1.71-.4c-.56-.17-1.09-.35-1.62-.57A.08.08,0,0,1,18.64,17.48Z"/><path class="cls-1" d="M16.36,19.42l.43-.26.4-.3a8,8,0,0,0,.77-.65s.1,0,.12,0c.25.5.48,1,.69,1.57.1.27.2.56.29.83l.24.84a.11.11,0,0,1-.15.11,15.19,15.19,0,0,1-2.79-2.05A.07.07,0,0,1,16.36,19.42Z"/><path class="cls-1" d="M13.56,20.46a3.88,3.88,0,0,0,.49-.11l.49-.12.47-.17a2.72,2.72,0,0,0,.47-.19s.09,0,.1.08a13.9,13.9,0,0,1,.11,1.71,15.1,15.1,0,0,1-.08,1.76c0,.08-.12.11-.17,0a17.16,17.16,0,0,1-1-1.41c-.16-.24-.31-.48-.46-.72l-.41-.76A.08.08,0,0,1,13.56,20.46Z"/><path class="cls-1" d="M10.57,20.48l.5.08c.16,0,.33,0,.5,0l.5,0,.51,0a.09.09,0,0,1,.07.11A15.87,15.87,0,0,1,11.49,24a.1.1,0,0,1-.17,0,14,14,0,0,1-.51-1.67,14.75,14.75,0,0,1-.32-1.69S10.52,20.47,10.57,20.48Z"/><path class="cls-1" d="M7.76,19.49c.14.09.29.15.44.23l.46.22.47.17a3.68,3.68,0,0,0,.47.15.09.09,0,0,1,0,.13c-.15.24-.31.48-.48.71s-.35.45-.53.67c-.37.44-.76.88-1.19,1.3-.06.05-.17,0-.16-.07a14.48,14.48,0,0,1,.1-1.76c0-.28.07-.57.11-.84s.11-.57.17-.85A.07.07,0,0,1,7.76,19.49Z"/><path class="cls-1" d="M5.45,17.58a7.93,7.93,0,0,0,.7.72l.37.34.41.3a.09.09,0,0,1,0,.13,16.2,16.2,0,0,1-1.43,1,16.17,16.17,0,0,1-1.55.8c-.07,0-.16,0-.13-.12.1-.28.2-.55.31-.81s.25-.54.38-.8a14.27,14.27,0,0,1,.83-1.49A.09.09,0,0,1,5.45,17.58Z"/><path class="cls-1" d="M3.94,15a8.79,8.79,0,0,0,.91,1.78.09.09,0,0,1-.06.12c-.54.16-1.09.29-1.66.4a16.9,16.9,0,0,1-1.74.23.1.1,0,0,1-.08-.16c.39-.45.78-.88,1.19-1.28s.87-.77,1.31-1.12A.09.09,0,0,1,3.94,15Z"/><path class="cls-1" d="M3.39,12.07a9.52,9.52,0,0,0,.26,2s0,.09-.09.09A16.75,16.75,0,0,1,1.84,14c-.56-.1-1.13-.23-1.7-.39a.1.1,0,0,1,0-.17,16.46,16.46,0,0,1,1.57-.79c.53-.23,1.07-.44,1.6-.61C3.33,12,3.39,12,3.39,12.07Z"/><path class="cls-1" d="M3.89,9.12a9.35,9.35,0,0,0-.45,2,.09.09,0,0,1-.12.06c-.51-.23-1-.48-1.53-.76A15.47,15.47,0,0,1,.31,9.42c-.06,0,0-.15,0-.17Q1.23,9.1,2.09,9A16.45,16.45,0,0,1,3.81,9C3.87,9,3.91,9.08,3.89,9.12Z"/><path class="cls-1" d="M5.36,6.52l-.3.4c-.1.14-.21.27-.29.41a7.58,7.58,0,0,0-.49.88.08.08,0,0,1-.13,0A15.66,15.66,0,0,1,3,7,16.92,16.92,0,0,1,1.9,5.58.1.1,0,0,1,2,5.43a15.77,15.77,0,0,1,1.71.4c.56.17,1.09.35,1.62.57A.08.08,0,0,1,5.36,6.52Z"/><path class="cls-1" d="M7.64,4.58l-.43.26-.4.3A8,8,0,0,0,6,5.79s-.1,0-.12,0c-.25-.5-.48-1-.69-1.57-.1-.27-.2-.56-.29-.83L4.7,2.52a.11.11,0,0,1,.15-.11,15.88,15.88,0,0,1,1.46.95,15.85,15.85,0,0,1,1.33,1.1A.07.07,0,0,1,7.64,4.58Z"/><path class="cls-1" d="M10.44,3.54a3.88,3.88,0,0,0-.49.11l-.49.12L9,3.94a2.72,2.72,0,0,0-.47.19s-.09,0-.1-.08a13.9,13.9,0,0,1-.11-1.71A15.1,15.1,0,0,1,8.39.58c0-.08.12-.11.17,0a17.16,17.16,0,0,1,1,1.41c.16.24.31.48.46.72l.41.76A.08.08,0,0,1,10.44,3.54Z"/><path class="cls-1" d="M13.43,3.52l-.5-.08c-.16,0-.33,0-.5,0l-.5,0-.51,0a.09.09,0,0,1-.07-.11A15.87,15.87,0,0,1,12.51.05a.1.1,0,0,1,.17,0,14,14,0,0,1,.51,1.67,14.75,14.75,0,0,1,.32,1.69C13.52,3.47,13.48,3.53,13.43,3.52Z"/><path class="cls-1" d="M16.24,4.51c-.14-.09-.29-.15-.44-.23l-.46-.22-.47-.17a3.68,3.68,0,0,0-.47-.15.09.09,0,0,1,0-.13c.15-.24.31-.48.48-.71s.35-.45.53-.67c.37-.44.76-.88,1.19-1.3.06-.05.17,0,.16.07a14.48,14.48,0,0,1-.1,1.76c0,.28-.07.57-.11.84s-.11.57-.17.85A.07.07,0,0,1,16.24,4.51Z"/><path class="cls-1" d="M18.55,6.42a7.93,7.93,0,0,0-.7-.72l-.37-.34-.41-.3a.09.09,0,0,1,0-.13,15.11,15.11,0,0,1,3-1.76c.07,0,.16.05.13.12-.1.28-.2.55-.31.81s-.25.54-.38.8a14.27,14.27,0,0,1-.83,1.49A.09.09,0,0,1,18.55,6.42Z"/><path class="cls-1" d="M20.06,9a8.79,8.79,0,0,0-.91-1.78.09.09,0,0,1,.06-.12c.54-.16,1.09-.29,1.66-.4a16.9,16.9,0,0,1,1.74-.23.1.1,0,0,1,.08.16c-.39.45-.78.88-1.19,1.28s-.87.77-1.31,1.12A.09.09,0,0,1,20.06,9Z"/><path class="cls-1" d="M20.61,11.93a9.52,9.52,0,0,0-.26-2s0-.09.09-.09a16.75,16.75,0,0,1,1.72.19c.56.1,1.13.23,1.7.39a.1.1,0,0,1,0,.17,16.46,16.46,0,0,1-1.57.79c-.53.23-1.07.44-1.6.61C20.67,12,20.61,12,20.61,11.93Z"/><circle class="cls-1" cx="12.02" cy="12.11" r="8.73"/></svg>