<svg id="Layer_1" data-name="Layer 1" xmlns="http://www.w3.org/2000/svg" viewBox="0 0 64 64"><defs><style>.cls-1,.cls-4{fill:#979797;}.cls-2,.cls-3{fill:#61a845;}.cls-3,.cls-4{fill-rule:evenodd;}</style></defs><path class="cls-1" d="M4.71,51.93l.83.26a3.71,3.71,0,0,1-.94,2A2.25,2.25,0,0,1,3,54.85a2.49,2.49,0,0,1-1.65-.53,3.17,3.17,0,0,1-1-1.51A6.69,6.69,0,0,1,0,50.68a6,6,0,0,1,.37-2.17,3.08,3.08,0,0,1,1.07-1.4A2.61,2.61,0,0,1,3,46.63a2.17,2.17,0,0,1,1.58.61,3.27,3.27,0,0,1,.9,1.7l-.82.24A2.7,2.7,0,0,0,4,47.92a1.49,1.49,0,0,0-1.05-.4A1.77,1.77,0,0,0,1.73,48a2.38,2.38,0,0,0-.68,1.18,6.6,6.6,0,0,0,0,3.3,2.2,2.2,0,0,0,.72,1.13,1.72,1.72,0,0,0,1.07.37,1.55,1.55,0,0,0,1.17-.51,2.68,2.68,0,0,0,.66-1.5Z"/><path class="cls-1" d="M6.19,51.83a3.4,3.4,0,0,1,.7-2.36,1.91,1.91,0,0,1,3,.14,3.49,3.49,0,0,1,.59,2.14,4.82,4.82,0,0,1-.26,1.75,2.26,2.26,0,0,1-.77,1,1.92,1.92,0,0,1-1.1.35,1.85,1.85,0,0,1-1.54-.77,3.62,3.62,0,0,1-.59-2.24Zm.78,0a2.87,2.87,0,0,0,.39,1.65,1.14,1.14,0,0,0,1,.55,1.16,1.16,0,0,0,1-.55,3,3,0,0,0,.38-1.68,2.79,2.79,0,0,0-.39-1.62,1.13,1.13,0,0,0-.95-.55,1.12,1.12,0,0,0-1,.55A2.83,2.83,0,0,0,7,51.84Z"/><path class="cls-1" d="M11.34,54.71V49H12v.88a2.37,2.37,0,0,1,.49-.81.73.73,0,0,1,.5-.19,1.28,1.28,0,0,1,.79.31l-.27.9a1,1,0,0,0-.57-.2.65.65,0,0,0-.45.19,1.17,1.17,0,0,0-.28.53,4.57,4.57,0,0,0-.13,1.14v3Z"/><path class="cls-1" d="M17.38,52.85l.8.13a2.59,2.59,0,0,1-.7,1.37,1.82,1.82,0,0,1-1.3.49,1.88,1.88,0,0,1-1.58-.78A3.58,3.58,0,0,1,14,51.88a3.67,3.67,0,0,1,.59-2.25,1.8,1.8,0,0,1,1.53-.8,1.76,1.76,0,0,1,1.48.78,3.65,3.65,0,0,1,.58,2.21c0,.06,0,.14,0,.26H14.81a2.6,2.6,0,0,0,.42,1.45,1.15,1.15,0,0,0,.95.51,1,1,0,0,0,.72-.29,1.89,1.89,0,0,0,.48-.9Zm-2.53-1.57h2.54a2.29,2.29,0,0,0-.3-1.09,1.09,1.09,0,0,0-1.84-.11,2.07,2.07,0,0,0-.4,1.2Z"/><polygon class="cls-1" points="19.13 54.71 19.13 46.77 19.91 46.77 19.91 54.71 19.13 54.71"/><path class="cls-1" d="M23.6,46.77h2.31a3.62,3.62,0,0,1,1.19.15,2,2,0,0,1,.95.73,3.85,3.85,0,0,1,.6,1.29,7.61,7.61,0,0,1,.2,1.88,6.45,6.45,0,0,1-.19,1.69A3.86,3.86,0,0,1,28,53.92a2.18,2.18,0,0,1-.89.63,3.1,3.1,0,0,1-1.12.17H23.6V46.77Zm1.27,1.34v5.26h.94a2.75,2.75,0,0,0,.77-.08,1.08,1.08,0,0,0,.51-.33,1.94,1.94,0,0,0,.33-.76,7,7,0,0,0,.12-1.46,6.34,6.34,0,0,0-.12-1.41,2,2,0,0,0-.36-.77,1.17,1.17,0,0,0-.59-.38,4.6,4.6,0,0,0-1-.07Z"/><path class="cls-1" d="M29.93,54.71v-8H32.6a3.77,3.77,0,0,1,1.47.22,1.57,1.57,0,0,1,.72.76A2.68,2.68,0,0,1,35.07,49a2.47,2.47,0,0,1-.42,1.48,1.81,1.81,0,0,1-1.24.73,3.33,3.33,0,0,1,.68.67,8.71,8.71,0,0,1,.72,1.29l.77,1.55H34.06L33.15,53a10.18,10.18,0,0,0-.67-1.17,1,1,0,0,0-.38-.33,1.7,1.7,0,0,0-.64-.09H31.2v3.32Zm1.27-4.58h.94a3.65,3.65,0,0,0,1.14-.1.74.74,0,0,0,.36-.34,1.32,1.32,0,0,0,.13-.59,1.14,1.14,0,0,0-.17-.65.72.72,0,0,0-.48-.31,7.54,7.54,0,0,0-.92,0h-1v2Z"/><path class="cls-1" d="M41.92,54.71H40.55L40,52.9H37.49L37,54.71H35.62l2.44-8h1.35l2.51,8ZM39.6,51.56l-.87-2.94-.85,2.94Z"/><polygon class="cls-1" points="42.98 54.71 41.5 46.77 42.81 46.77 43.74 52.23 44.89 46.77 46.4 46.77 47.49 52.32 48.45 46.77 49.73 46.77 48.21 54.71 46.86 54.71 45.62 48.77 44.37 54.71 42.98 54.71"/><path class="cls-1" d="M22.59,58.41v-.48h1.27v1.52a2.38,2.38,0,0,1-.61.48,1.31,1.31,0,0,1-.63.16,1.37,1.37,0,0,1-.81-.26,1.52,1.52,0,0,1-.54-.75A2.9,2.9,0,0,1,21.08,58a3.08,3.08,0,0,1,.19-1.11,1.53,1.53,0,0,1,.52-.77,1.3,1.3,0,0,1,.79-.25,1.25,1.25,0,0,1,.59.14,1,1,0,0,1,.41.4,2.1,2.1,0,0,1,.23.67l-.36.14a2,2,0,0,0-.16-.5.78.78,0,0,0-.29-.28.81.81,0,0,0-.41-.11,1,1,0,0,0-.47.11.93.93,0,0,0-.32.3,1.4,1.4,0,0,0-.19.41,2.66,2.66,0,0,0-.12.82,2.7,2.7,0,0,0,.14.92,1.16,1.16,0,0,0,.4.55,1.07,1.07,0,0,0,.56.17,1,1,0,0,0,.51-.13,1.44,1.44,0,0,0,.37-.29v-.77Z"/><path class="cls-1" d="M24.39,60v-3h.33v.46a1.45,1.45,0,0,1,.24-.42.33.33,0,0,1,.24-.1.55.55,0,0,1,.37.16l-.13.46a.43.43,0,0,0-.27-.1.28.28,0,0,0-.21.1.69.69,0,0,0-.14.27,2.74,2.74,0,0,0-.06.59V60Z"/><path class="cls-1" d="M27.22,59.65a1.42,1.42,0,0,1-.4.33.8.8,0,0,1-.41.1.68.68,0,0,1-.55-.24,1,1,0,0,1-.19-.61,1.23,1.23,0,0,1,.07-.39.91.91,0,0,1,.19-.29.74.74,0,0,1,.27-.16,1.31,1.31,0,0,1,.33-.08,2.57,2.57,0,0,0,.65-.17.85.85,0,0,0,0-.13.65.65,0,0,0-.11-.43.51.51,0,0,0-.42-.17.49.49,0,0,0-.38.13,1,1,0,0,0-.19.44l-.36-.07a1.81,1.81,0,0,1,.16-.51.8.8,0,0,1,.33-.3,1.12,1.12,0,0,1,.5-.11,1,1,0,0,1,.45.09.73.73,0,0,1,.26.23,1,1,0,0,1,.11.34,4.32,4.32,0,0,1,0,.46v.67c0,.46,0,.76,0,.88a2.11,2.11,0,0,0,.09.36h-.39a1.91,1.91,0,0,1-.06-.37Zm0-1.12a2,2,0,0,1-.61.19,1.35,1.35,0,0,0-.32.1.46.46,0,0,0-.15.16.6.6,0,0,0-.05.24.48.48,0,0,0,.12.33.39.39,0,0,0,.32.14.58.58,0,0,0,.38-.13.8.8,0,0,0,.25-.34,1.67,1.67,0,0,0,.05-.5v-.19Z"/><path class="cls-1" d="M28.12,61.15v-4.1h.34v.39a1.07,1.07,0,0,1,.27-.34.61.61,0,0,1,.36-.11.66.66,0,0,1,.49.2,1.18,1.18,0,0,1,.32.55,2.65,2.65,0,0,1,.11.77,2.57,2.57,0,0,1-.12.82,1.25,1.25,0,0,1-.35.56.77.77,0,0,1-.48.19.57.57,0,0,1-.33-.11.85.85,0,0,1-.24-.26v1.44Zm.34-2.6a1.65,1.65,0,0,0,.17.84.47.47,0,0,0,.41.28.52.52,0,0,0,.42-.28,1.69,1.69,0,0,0,.17-.88,1.57,1.57,0,0,0-.17-.84.49.49,0,0,0-.41-.29.51.51,0,0,0-.41.3,1.71,1.71,0,0,0-.18.87Z"/><path class="cls-1" d="M30.46,60V55.93h.37V57.4a.75.75,0,0,1,.64-.41.68.68,0,0,1,.42.13.72.72,0,0,1,.25.36,1.9,1.9,0,0,1,.08.66V60h-.37V58.15a1,1,0,0,0-.12-.55.36.36,0,0,0-.33-.17.47.47,0,0,0-.31.11.65.65,0,0,0-.2.32,1.91,1.91,0,0,0-.06.54V60Z"/><path class="cls-1" d="M32.79,56.5v-.57h.37v.57Zm0,3.52v-3h.37v3Z"/><path class="cls-1" d="M35.14,58.93l.36.07a1.46,1.46,0,0,1-.3.79.73.73,0,0,1-.6.29.83.83,0,0,1-.72-.4,2,2,0,0,1-.27-1.13,2.66,2.66,0,0,1,.12-.84,1,1,0,0,1,.36-.54A.81.81,0,0,1,34.6,57a.75.75,0,0,1,.58.24,1.29,1.29,0,0,1,.29.7l-.36.07a.85.85,0,0,0-.18-.45.39.39,0,0,0-.31-.15.53.53,0,0,0-.46.27,2.29,2.29,0,0,0,0,1.73.5.5,0,0,0,.44.27.45.45,0,0,0,.36-.18,1.19,1.19,0,0,0,.18-.56Z"/><path class="cls-1" d="M35.67,59.13l.36-.08a.84.84,0,0,0,.17.46.5.5,0,0,0,.39.16.49.49,0,0,0,.38-.14.46.46,0,0,0,.13-.33.37.37,0,0,0-.11-.27,1.59,1.59,0,0,0-.38-.17,2.45,2.45,0,0,1-.56-.24.66.66,0,0,1-.24-.28,1,1,0,0,1-.08-.4.94.94,0,0,1,.07-.37A.64.64,0,0,1,36,57.2a.76.76,0,0,1,.23-.15.87.87,0,0,1,.32-.06.93.93,0,0,1,.45.1.76.76,0,0,1,.29.27,1.34,1.34,0,0,1,.12.46l-.36.07a.65.65,0,0,0-.14-.36.42.42,0,0,0-.33-.13.46.46,0,0,0-.36.12.33.33,0,0,0-.11.26.37.37,0,0,0,0,.18.35.35,0,0,0,.14.13l.33.13a3.14,3.14,0,0,1,.54.23.6.6,0,0,1,.25.27,1,1,0,0,1,.09.43,1.12,1.12,0,0,1-.11.47.79.79,0,0,1-.31.34.9.9,0,0,1-.46.12.85.85,0,0,1-.65-.24,1.22,1.22,0,0,1-.28-.71Z"/><path class="cls-1" d="M39,58.7l.38,0a1.19,1.19,0,0,0,.12.5.66.66,0,0,0,.3.32.82.82,0,0,0,.46.13.84.84,0,0,0,.4-.09.59.59,0,0,0,.26-.26.7.7,0,0,0,.09-.35.58.58,0,0,0-.09-.33.6.6,0,0,0-.27-.25c-.08,0-.26-.1-.53-.19a2.16,2.16,0,0,1-.58-.26,1,1,0,0,1-.32-.38A1.23,1.23,0,0,1,39.1,57a1.41,1.41,0,0,1,.13-.58.89.89,0,0,1,.38-.41,1.12,1.12,0,0,1,.55-.14,1.25,1.25,0,0,1,.59.14,1,1,0,0,1,.39.43,1.68,1.68,0,0,1,.15.65l-.38,0a.93.93,0,0,0-.21-.58.64.64,0,0,0-.52-.2.69.69,0,0,0-.53.18.6.6,0,0,0-.16.43.57.57,0,0,0,.12.37,1.34,1.34,0,0,0,.6.29,3.54,3.54,0,0,1,.66.26,1,1,0,0,1,.38.42,1.17,1.17,0,0,1,.13.57,1.44,1.44,0,0,1-.14.62,1.07,1.07,0,0,1-.39.45,1,1,0,0,1-.58.16,1.29,1.29,0,0,1-.68-.17,1,1,0,0,1-.43-.48A1.75,1.75,0,0,1,39,58.7Z"/><path class="cls-1" d="M43.29,60v-.44a.78.78,0,0,1-.69.5.65.65,0,0,1-.36-.1.75.75,0,0,1-.25-.25,1.16,1.16,0,0,1-.11-.37c0-.1,0-.26,0-.47V57.06h.37V58.7c0,.26,0,.44,0,.53a.54.54,0,0,0,.15.31.39.39,0,0,0,.28.11.53.53,0,0,0,.31-.11.7.7,0,0,0,.2-.32,2.09,2.09,0,0,0,.06-.58V57.06h.37v3Z"/><path class="cls-1" d="M44.2,56.5v-.57h.37v.57Zm0,3.52v-3h.37v3Z"/><path class="cls-1" d="M46.55,60v-.44a.78.78,0,0,1-.69.5.64.64,0,0,1-.35-.1.67.67,0,0,1-.25-.25,1,1,0,0,1-.12-.37c0-.1,0-.26,0-.47V57.06h.37V58.7c0,.26,0,.44,0,.53a.6.6,0,0,0,.15.31.41.41,0,0,0,.28.11.53.53,0,0,0,.31-.11.63.63,0,0,0,.2-.32,2.09,2.09,0,0,0,.06-.58V57.06h.37v3Z"/><path class="cls-1" d="M48.27,59.57l0,.44a1.11,1.11,0,0,1-.28.05.48.48,0,0,1-.31-.09.56.56,0,0,1-.16-.23,2.47,2.47,0,0,1,0-.59V57.44h-.27v-.39h.27v-.73l.37-.3v1h.37v.39H47.9v1.74a.83.83,0,0,0,0,.27.17.17,0,0,0,.06.1.25.25,0,0,0,.13,0l.16,0Z"/><path class="cls-1" d="M50.11,59.06l.38.07a1.39,1.39,0,0,1-.33.7.81.81,0,0,1-.62.25.88.88,0,0,1-.76-.4,2,2,0,0,1-.28-1.12,2,2,0,0,1,.29-1.16.85.85,0,0,1,.73-.41.81.81,0,0,1,.71.41,2,2,0,0,1,.27,1.13v.14H48.88a1.36,1.36,0,0,0,.2.74.54.54,0,0,0,.46.26.45.45,0,0,0,.34-.15.9.9,0,0,0,.23-.46Zm-1.2-.81h1.21a1.42,1.42,0,0,0-.14-.56.53.53,0,0,0-.46-.29.51.51,0,0,0-.42.23,1.06,1.06,0,0,0-.19.62Z"/><path class="cls-2" d="M52.44,60l2.44-3.69-2.26-3.42H54l1.06,1.67c.19.32.35.58.46.78l.51-.78,1.11-1.67h1.38l-2.27,3.42L58.68,60H57.31l-1.38-2.2-.32-.52L53.83,60Z"/><path class="cls-2" d="M60.6,55.75a1.59,1.59,0,0,1-1.09-1.58,1.94,1.94,0,0,1,.57-1.42,2.05,2.05,0,0,1,1.52-.58,2.07,2.07,0,0,1,1.53.59,2,2,0,0,1,.58,1.44,1.58,1.58,0,0,1-1.07,1.55,2,2,0,0,1,1,.75A2.2,2.2,0,0,1,64,57.74a2.29,2.29,0,0,1-2.39,2.35,2.33,2.33,0,0,1-1.74-.68,2.35,2.35,0,0,1-.66-1.7,2.13,2.13,0,0,1,.36-1.26,1.89,1.89,0,0,1,1-.7Zm-.17-1.61a1.29,1.29,0,0,0,.32.9,1.15,1.15,0,0,0,.87.35,1.09,1.09,0,0,0,.85-.35,1.21,1.21,0,0,0,.32-.85,1.25,1.25,0,0,0-.33-.88,1.12,1.12,0,0,0-.85-.35,1.1,1.1,0,0,0-.85.35,1.15,1.15,0,0,0-.33.83Zm-.3,3.58a1.82,1.82,0,0,0,.18.79,1.26,1.26,0,0,0,.53.59,1.51,1.51,0,0,0,.77.21,1.41,1.41,0,0,0,1.06-.44,1.53,1.53,0,0,0,.41-1.11,1.61,1.61,0,0,0-.42-1.14,1.43,1.43,0,0,0-1.08-.45,1.37,1.37,0,0,0-1,.44,1.6,1.6,0,0,0-.41,1.11Z"/><polygon class="cls-3" points="28.42 37.73 29.27 41.1 33.31 41.1 34.1 37.68 28.42 37.73"/><path class="cls-4" d="M30.53,35.35l.16.48.1.21h1l.12,0,.14-.34c.6-1.55,2.18-8.16,2.51-9.84a53.45,53.45,0,0,0,1.23-13.92,18.5,18.5,0,0,0-1.12-5.4,5.6,5.6,0,0,0-2.59-3.28c-1.45-.61-2.85.88-3.47,2.08-3.32,6.39-1.2,17.41.35,23.94l.52,2.24c.34,1.3.73,2.45,1.08,3.88Z"/><path class="cls-4" d="M30.12,35.67l-.58-.47C22.66,28.74,13.22,7,28.1,3a2.89,2.89,0,0,1,1.07-.15c-11.69,5-3.81,24.67.95,32.82Z"/><path class="cls-4" d="M32.61,35.67l.57-.47C40.07,28.74,49.5,7,34.63,3a2.89,2.89,0,0,0-1.07-.15c11.69,5,3.81,24.67-1,32.82Z"/><path class="cls-4" d="M23.3,4.57a10.21,10.21,0,0,0-5.66,7.53l-.11,1.36v1.1l.15,1.21.09.57C18.93,22.68,24.2,31,28.84,35.41,22.42,26.85,12.75,13.32,23.3,4.57Z"/><path class="cls-4" d="M39.43,4.57a10.23,10.23,0,0,1,5.66,7.53l.11,1.36v1.1L45,15.77l-.08.57C43.79,22.68,38.53,31,33.89,35.41,40.3,26.85,50,13.32,39.43,4.57Z"/></svg>