<svg id="Layer_1" data-name="Layer 1" xmlns="http://www.w3.org/2000/svg" xmlns:xlink="http://www.w3.org/1999/xlink" viewBox="0 0 70.15 96.73"><defs><style>.cls-1{fill:none;}.cls-2{clip-path:url(#clip-path);}.cls-3{fill:#f9b889;}.cls-4{fill:#251d19;}.cls-5{fill:#efd5b5;}.cls-6{fill:#f7a471;}.cls-7{fill:#e55a42;}.cls-8{fill:#dc6947;}.cls-9{fill:#3c271d;}.cls-10{fill:#fcb415;}.cls-11{fill:#047a87;}.cls-12{fill:#fbb416;}</style><clipPath id="clip-path" transform="translate(-8.14 -9.06)"><circle class="cls-1" cx="40.22" cy="40" r="40"/></clipPath></defs><g class="cls-2"><path class="cls-3" d="M27.68,16.66a34.84,34.84,0,0,1,.09,4.41,10.61,10.61,0,0,0,0,2.89,31.61,31.61,0,0,0,.46,4.13c.33,1,1.09,4,1.14,4.29s1.06,2.66,2.76,3.06a2.25,2.25,0,0,1,2,2.28c0,.78.1,2.94-1.42,3.46a14.63,14.63,0,0,1-4.53.38c-.62,0-1.9.06-2.28,0s-2.39.28-3.18.35a16.59,16.59,0,0,0-3.63.35,19.87,19.87,0,0,0-3.08.91A14.21,14.21,0,0,0,12.67,45a9.79,9.79,0,0,0-2.19,3.77,34.44,34.44,0,0,0-1.21,6.74c-.3,3.34-.4,4.15-.26,4.79A24.22,24.22,0,0,1,9,63.17c0,.54.23,2,.25,2.25s0,1.9,0,2.42,0,2.25.05,3.41,0,4.11-.05,5,.14,3,.1,4-.07,4.22-.05,5.21-.43,3.77-.12,5a18.29,18.29,0,0,1,.14,4.77c-.11.74-.83,3.32-.92,4.48s-.43,3.54,0,4.65,1,1.45,1.23.19.29-3.29.55-2.84-.5,3.39.42,3.53.91-2.7.95-3.18.45-1,.57-.28a12.69,12.69,0,0,1-.09,2.3c0,.73.33,1.85,1,1.45s.43-1.74.45-2.33.26-1.71.59-1.4.07,1.64,0,2-.05,1.87.62,1.89.87-.64.92-2.15-.19-3.21.5-3.35,2.39.36,2.56-.4-.43-1.35-1.37-1.33-1.57-.09-1.59-1.56.42-1.88.49-3.28,0-2.16.22-3.41a50.11,50.11,0,0,0,.16-5.74c0-1.59-.21-3.61-.21-4.7a21.3,21.3,0,0,1,.26-3.29,26.87,26.87,0,0,0,.19-4.13c0-1.19,0-4.29.07-4.77a27.18,27.18,0,0,1,.24-3,19.32,19.32,0,0,0,.38-5.46,14.31,14.31,0,0,1,.31-4.76c.21-.76.61-1.85,1-2s.62.1.9,1.12A20.75,20.75,0,0,1,20,58.83c-.14,1.32-.28,5.19-.24,6.42s.1,3.37.26,4.65,0,4.2.15,5.27.5,5.31.5,5.31,7.72.53,11.56.32,11.81,0,14,.07,5.9.14,8,.14,5.66.11,6-.42.46-9,.25-10.5-1.14-5.34-.78-6.79a18.61,18.61,0,0,0,.14-4.24,21.82,21.82,0,0,1,.14-4.12c.29-.72.5-1,1.42-.82s1.18,4.27,1.14,5.51.15,5.12.32,6.23-.14,4.37.29,6.72,0,3.13.42,5.52A39.27,39.27,0,0,1,64,84.71a44.06,44.06,0,0,0,.25,4.77c.18,1.24.47,4.59.61,5.23a6,6,0,0,1,.09,2.6,2.31,2.31,0,0,1-1.18.65c-.8.29-1.38.54-1.49,1.16s-.2,1.19.68.91,1.19-.55,1.2,0a25,25,0,0,1-.08,3.41c-.15.77,0,1.78.39,2s.92.21,1-.44a9.2,9.2,0,0,0,0-2.12c-.07-.25-.11-1,.21-.85s.34.64.34,1-.09,1.46.31,1.88,1,.43,1.22,0,0-2.49.14-2.83.56-.21.48.5-.3,1.88,0,2.38,1,.71,1.13.23,0-2.45.11-2.88.34-.3.36.07a9.74,9.74,0,0,1,0,1.62.86.86,0,0,0,.49,1c.41.14.88-.27,1.05-.8a20.85,20.85,0,0,0,0-4.11c-.09-.82-.39-3.17-.42-4.56s-.13-5.9-.13-6.67-.28-4.12-.28-4.92.18-2.67.21-3.74,0-4.61.07-5.37-.18-4.38-.23-5.2a17.27,17.27,0,0,1,0-2.68,20.53,20.53,0,0,0,0-3.51c-.11-.55-.16-2.68-.18-3.29s0-2.29-.14-2.84A17.64,17.64,0,0,1,70,55.29a26.58,26.58,0,0,0-.6-3.57c-.29-.88-.86-2-1-2.58a7.11,7.11,0,0,0-1.2-2.1,16.62,16.62,0,0,0-3.95-3,25.89,25.89,0,0,0-5-1c-1.08-.09-3.77.11-4.94.07a6.25,6.25,0,0,1-3-.59c-.75-.48-1.53-1-1.57-1.67a10.81,10.81,0,0,1-.3-3.91,35.86,35.86,0,0,1,.82-4.44S51.66,19.43,45.82,16,29.17,13.38,27.68,16.66Z" transform="translate(-8.14 -9.06)"/><path class="cls-4" d="M27.68,16.66s8.82-1.28,12,.49,5.2,3.28,5.69,6.12S46.6,30,48.17,31.53s2.06,1.63,3.7,1.35,5.41,0,7,1.07,7.9,5.26,12.67,5.19,5.33-.64,6.47-3.13S76,30.18,72.36,31.53c0,0,1.21-1.64.57-2.78s-2.21-3.34-4.7-2.35c0,0,1.57-4.83-5.33-4.55a9.62,9.62,0,0,1-2.28-2.56c-.78-1.42-4.18-7.54-7.64-8.47A39,39,0,0,0,37.71,9.26C30.74,10,25.33,12.81,27.68,16.66Z" transform="translate(-8.14 -9.06)"/><path class="cls-5" d="M37.81,23s-.86-.38-.12-.76a6.6,6.6,0,0,1,3.6-.9c1.35.19,2.75,1.37,2.18,1.66S39.94,24.46,37.81,23Z" transform="translate(-8.14 -9.06)"/><path class="cls-5" d="M31.88,22.87s.66-.19,0-.62-2.35-1.49-3.25-1.09-.9.86-.83,2S31.14,23.3,31.88,22.87Z" transform="translate(-8.14 -9.06)"/><path class="cls-6" d="M33.05,22.81s-.12,4.09,0,4.79,1.18,1.07,1.93,1,1.36-.38,1.38-1.07-.23-1.1-.62-1a.72.72,0,0,0-.6.38.9.9,0,0,0-.09.48c0,.15.22.1.26-.06s.08-.55.41-.56.49.61.24,1-.6.41-.9.47a2.11,2.11,0,0,1-1.4-.29c-.46-.3-.38-3.54-.38-3.67S33.37,23,33.05,22.81Z" transform="translate(-8.14 -9.06)"/><path class="cls-7" d="M30.62,26.71a.92.92,0,0,1-1,1,1.21,1.21,0,0,1-1.23-1.1,1,1,0,0,1,1-1.1A1.27,1.27,0,0,1,30.62,26.71Z" transform="translate(-8.14 -9.06)"/><path class="cls-7" d="M42.83,26.5a.92.92,0,0,1-1,1,1.22,1.22,0,0,1-1.24-1.1,1,1,0,0,1,1-1.1A1.27,1.27,0,0,1,42.83,26.5Z" transform="translate(-8.14 -9.06)"/><path class="cls-8" d="M33.09,31.3s-.12-.53,0-.6.16.05.43.78a1.34,1.34,0,0,0,1.77.57,1.43,1.43,0,0,0,.9-1.12c.1-.44.35-.11.29.11s-.4,1.27-1.15,1.42S33.55,32.75,33.09,31.3Z" transform="translate(-8.14 -9.06)"/><path class="cls-9" d="M40,21.35a2.84,2.84,0,0,1-.11,2.33s-2.28-.35-2.51-1.19C37.39,22.49,37.73,21.82,40,21.35Z" transform="translate(-8.14 -9.06)"/><path class="cls-9" d="M28.94,21.08a2.72,2.72,0,0,1,.56,2.56s-1.39.31-1.63-.22A2.07,2.07,0,0,1,28,21.56,1.56,1.56,0,0,1,28.94,21.08Z" transform="translate(-8.14 -9.06)"/><path class="cls-10" d="M23.76,41.81a16.89,16.89,0,0,1-1.83.17,15,15,0,0,0-2.77.31c-.64.19-2,.47-2.52.69a24.81,24.81,0,0,0-2.92,1.32,3.68,3.68,0,0,0-1.14.81,8.94,8.94,0,0,0-1.8,2.83,26.29,26.29,0,0,0-1.39,6.74C9,58.38,8.89,60,9,60.42S8.91,62.3,9,63s8.33,0,8.33,0a28.61,28.61,0,0,0,0-4.31c-.19-1.85.24-5.33,1.4-6.3s1.45,4.67,1.33,6.41a37.06,37.06,0,0,0-.26,7.59c.36,2.78.43,8.4.64,10.18s.29,3.88.29,3.88,7.5.49,8,.42,7.61-.28,8.43-.25,9.14.32,10.67.32,10.1.15,11.21,0,1.21.07,1.38-1.07.18-5.94.18-7.4A29.66,29.66,0,0,0,60,67a10.35,10.35,0,0,1-.11-4.8c.36-1.25-.18-3.49,0-5.09s-.14-2.88,1.07-3,1.42,1.17,1.64,3.66.1,5.13.25,6.12,7.68,0,7.68,0-.28-5.26-.28-5.55S70,56.72,70,56.15a29.05,29.05,0,0,0-.64-4.55,13.86,13.86,0,0,0-2.21-4.67,10.93,10.93,0,0,0-4.34-3A21.62,21.62,0,0,0,56.71,43,11.36,11.36,0,0,1,57,46.36c-.14,1.74-.92,5.9-2.27,6.69s-5.25,4.55-9.9,3.87-13-3.45-15.54-6.29S23.76,41.81,23.76,41.81Z" transform="translate(-8.14 -9.06)"/><path class="cls-11" d="M55.3,81.09c-1.83,0-3.95,0-5.53,0H47.85c-1.52,0-9.88-.29-10.68-.32s-7.86.17-8.42.24-7.74-.4-8-.42h-.06v-.06s-.07-2.12-.28-3.87c-.09-.78-.16-2.24-.23-3.93-.1-2.19-.21-4.68-.41-6.25a28.15,28.15,0,0,1,.13-6.22c.06-.53.1-1,.13-1.39.11-1.66-.13-6-.91-6.42a.28.28,0,0,0-.32.07c-1.11.93-1.57,4.37-1.37,6.24a30.68,30.68,0,0,1,0,4.33v.05h-.05c-.31,0-7.61.67-8.32.08A.2.2,0,0,1,8.91,63,8.48,8.48,0,0,1,9,61.75a4.83,4.83,0,0,0,0-1.31c-.15-.44-.05-2.11.35-5.76a26.51,26.51,0,0,1,1.39-6.77,8.61,8.61,0,0,1,1.76-2.77l.06-.07a2.3,2.3,0,0,1,.72-.57l.43-.26a25.94,25.94,0,0,1,2.93-1.32,16.46,16.46,0,0,1,1.6-.45c.35-.08.69-.17.93-.24a14.09,14.09,0,0,1,2.78-.31,17,17,0,0,0,1.83-.18h0l0,0c0,.06,3,6,5.51,8.81s10.85,5.6,15.5,6.27c3.77.55,7.08-1.87,8.86-3.17.41-.31.74-.55,1-.7,1.27-.73,2.09-4.68,2.25-6.64A11.35,11.35,0,0,0,56.65,43l0-.08h.08a21.64,21.64,0,0,1,6.16.91,10.79,10.79,0,0,1,4.37,3,13.41,13.41,0,0,1,2.16,4.5l.06.19a29.2,29.2,0,0,1,.64,4.57,13.69,13.69,0,0,0,.12,1.4c0,.34.07.64.07.76,0,.28.28,5.5.28,5.55v.06h-.06c-.78.11-7.61,1-7.76-.05-.06-.46-.07-1.25-.09-2.25s0-2.53-.16-3.87c-.14-1.73-.29-3-.84-3.43a.91.91,0,0,0-.72-.18c-.9.11-.92.86-1,2,0,.31,0,.63-.05,1A13,13,0,0,0,60,59.42a9.08,9.08,0,0,1,0,2.79A10.35,10.35,0,0,0,60.08,67a29.5,29.5,0,0,1,.6,5.49c0,1.55,0,6.27-.18,7.41-.14,1-.26,1-.91,1.05l-.52.07C58.64,81.07,57.11,81.09,55.3,81.09Zm-18.4-.5h.28c.8,0,9.15.32,10.67.32l1.92,0c2.94,0,8.42.08,9.28-.05a4.45,4.45,0,0,1,.52-.07c.61-.07.67-.07.81-1s.18-3.24.18-7.39A29.24,29.24,0,0,0,60,67a10.49,10.49,0,0,1-.1-4.84,8.49,8.49,0,0,0,0-2.74,15.49,15.49,0,0,1-.07-2.33c0-.34,0-.66,0-1,0-1.12.07-2,1.07-2.11a1,1,0,0,1,.82.2c.59.48.74,1.76.89,3.52.12,1.34.14,2.75.16,3.88a20.16,20.16,0,0,0,.09,2.23c.1.68,4.66.34,7.55,0,0-.61-.28-5.23-.28-5.5,0-.11,0-.41-.07-.74S70,56.49,70,56.15a28.47,28.47,0,0,0-.63-4.53l-.06-.19A13.27,13.27,0,0,0,67.14,47a10.81,10.81,0,0,0-4.31-3,21.12,21.12,0,0,0-6-.9,11.2,11.2,0,0,1,.26,3.28c-.14,1.78-.92,5.94-2.3,6.74a9.92,9.92,0,0,0-1,.69C52,55.1,48.63,57.54,44.81,57c-4.67-.68-13.06-3.48-15.58-6.32s-5.23-8.26-5.5-8.8a14.13,14.13,0,0,1-1.8.18,13.3,13.3,0,0,0-2.75.31l-.93.24a14.65,14.65,0,0,0-1.59.44,24.77,24.77,0,0,0-2.91,1.31l-.43.26a2.13,2.13,0,0,0-.69.55l-.06.06A8.67,8.67,0,0,0,10.84,48a26.65,26.65,0,0,0-1.39,6.73C9.06,58.32,9,60,9.1,60.4a5.1,5.1,0,0,1,0,1.36A8.27,8.27,0,0,0,9,63l0,0c.55.46,6,.09,8.18-.1a30,30,0,0,0,0-4.25c-.2-1.94.26-5.38,1.42-6.35a.39.39,0,0,1,.46-.08c.88.45,1.07,5.09,1,6.54,0,.4-.07.86-.12,1.39a28.53,28.53,0,0,0-.14,6.2c.2,1.57.31,4.06.41,6.26.08,1.69.14,3.14.23,3.91.19,1.6.27,3.48.29,3.83.69,0,7.47.49,8,.42S35.37,80.59,36.9,80.59Z" transform="translate(-8.14 -9.06)"/><path class="cls-12" d="M23.76,41.81a15.19,15.19,0,0,0,2.71,6.47C28.82,51.55,36,58.81,44.82,58.1s10.39-2.56,12-5.27,2.63-7.18,2.28-8.75l.07-.9L56.71,43s.64,5-1.14,7.51S51.51,57,42.87,55.93,28.31,47.75,27.12,44.44,26,41.59,26,41.59Z" transform="translate(-8.14 -9.06)"/><path class="cls-11" d="M43.59,58.21a18.66,18.66,0,0,1-10.41-3.47,27.93,27.93,0,0,1-6.76-6.42,15.57,15.57,0,0,1-2.72-6.51v-.06l2.22-.22,0,0c.08,0,.16,0,1.22,2.92A17.78,17.78,0,0,0,32.24,51a20.4,20.4,0,0,0,10.64,4.89c8.24,1,10.65-2.49,12.41-5,.08-.12.15-.23.23-.33C57.26,48,56.65,43.07,56.65,43V43l2.63.18-.08.95c.36,1.62-.64,6.07-2.29,8.79s-3.37,4.59-12.08,5.29C44.41,58.19,44,58.21,43.59,58.21ZM23.84,41.86a15.27,15.27,0,0,0,2.68,6.38c2.64,3.69,9.86,10.47,18.29,9.8,8.65-.7,10.3-2.45,12-5.24,1.59-2.63,2.62-7.13,2.27-8.7h0l.07-.84-2.35-.16c.07.64.49,5.1-1.16,7.48l-.23.33c-1.56,2.27-3.63,5.28-9.75,5.28A21.65,21.65,0,0,1,42.86,56a20.44,20.44,0,0,1-10.7-4.92,17.87,17.87,0,0,1-5.1-6.61A27.05,27.05,0,0,0,26,41.65Z" transform="translate(-8.14 -9.06)"/></g></svg>